<svg width="205" height="53" viewBox="0 0 205 53" fill="none" xmlns="http://www.w3.org/2000/svg">
<path d="M20.072 18.088L18.538 18.322V1.5H22.828V21H17.238L4.758 4.178L6.266 3.944V21H2.002V1.5H7.722L20.072 18.088ZM34.5621 21.39C32.8115 21.39 31.2428 21.0693 29.8561 20.428C28.4868 19.7693 27.4035 18.8507 26.6061 17.672C25.8261 16.4933 25.4361 15.124 25.4361 13.564C25.4361 12.0213 25.8088 10.6693 26.5541 9.508C27.3168 8.34667 28.3568 7.44533 29.6741 6.804C30.9915 6.14533 32.4908 5.816 34.1721 5.816C35.8881 5.816 37.3615 6.19733 38.5921 6.96C39.8228 7.70533 40.7675 8.76267 41.4261 10.132C42.1021 11.5013 42.4401 13.1133 42.4401 14.968H28.9201V12.082H40.1001L38.4101 13.122C38.3408 12.2553 38.1241 11.5187 37.7601 10.912C37.4135 10.3053 36.9368 9.83733 36.3301 9.508C35.7235 9.17867 35.0128 9.014 34.1981 9.014C33.3141 9.014 32.5428 9.196 31.8841 9.56C31.2428 9.90667 30.7401 10.4007 30.3761 11.042C30.0295 11.666 29.8561 12.4027 29.8561 13.252C29.8561 14.2747 30.0815 15.15 30.5321 15.878C30.9828 16.606 31.6415 17.1607 32.5081 17.542C33.3748 17.9233 34.4235 18.114 35.6541 18.114C36.7635 18.114 37.8815 17.958 39.0081 17.646C40.1348 17.3167 41.1488 16.8573 42.0501 16.268V19.18C41.0795 19.8733 39.9441 20.4193 38.6441 20.818C37.3615 21.1993 36.0008 21.39 34.5621 21.39ZM64.0536 18.634H62.6236L67.2516 6.206H71.5936L65.8736 21H61.4276L56.4876 8.234H58.0476L53.0296 21H48.5836L42.8636 6.206H47.2576L51.9116 18.634H50.4296L55.1616 6.206H59.3996L64.0536 18.634ZM107.101 1.5V21H102.889V2.982L104.007 3.06L95.6867 21H91.1367L82.8167 3.112L83.9087 3.008V21H79.7227V1.5H86.5087L94.3607 18.868H92.4627L100.315 1.5H107.101ZM118.834 21.39C117.083 21.39 115.514 21.0693 114.128 20.428C112.758 19.7693 111.675 18.8507 110.878 17.672C110.098 16.4933 109.708 15.124 109.708 13.564C109.708 12.0213 110.08 10.6693 110.826 9.508C111.588 8.34667 112.628 7.44533 113.946 6.804C115.263 6.14533 116.762 5.816 118.444 5.816C120.16 5.816 121.633 6.19733 122.864 6.96C124.094 7.70533 125.039 8.76267 125.698 10.132C126.374 11.5013 126.712 13.1133 126.712 14.968H113.192V12.082H124.372L122.682 13.122C122.612 12.2553 122.396 11.5187 122.032 10.912C121.685 10.3053 121.208 9.83733 120.602 9.508C119.995 9.17867 119.284 9.014 118.47 9.014C117.586 9.014 116.814 9.196 116.156 9.56C115.514 9.90667 115.012 10.4007 114.648 11.042C114.301 11.666 114.128 12.4027 114.128 13.252C114.128 14.2747 114.353 15.15 114.804 15.878C115.254 16.606 115.913 17.1607 116.78 17.542C117.646 17.9233 118.695 18.114 119.926 18.114C121.035 18.114 122.153 17.958 123.28 17.646C124.406 17.3167 125.42 16.8573 126.322 16.268V19.18C125.351 19.8733 124.216 20.4193 122.916 20.818C121.633 21.1993 120.272 21.39 118.834 21.39ZM142.875 21L142.251 15.41L143.083 13.642L142.277 11.484L143.447 0.979999H147.945L146.515 13.304L147.373 21H142.875ZM143.941 13.616C143.664 15.176 143.153 16.5453 142.407 17.724C141.679 18.8853 140.752 19.7867 139.625 20.428C138.516 21.0693 137.268 21.39 135.881 21.39C134.443 21.39 133.169 21.0693 132.059 20.428C130.95 19.7693 130.083 18.8593 129.459 17.698C128.853 16.5193 128.549 15.1587 128.549 13.616C128.549 12.056 128.853 10.6953 129.459 9.534C130.083 8.35533 130.95 7.44533 132.059 6.804C133.169 6.14533 134.443 5.816 135.881 5.816C137.268 5.816 138.516 6.13667 139.625 6.778C140.752 7.41933 141.688 8.32933 142.433 9.508C143.179 10.6693 143.681 12.0387 143.941 13.616ZM132.943 13.616C132.943 14.4827 133.117 15.2453 133.463 15.904C133.827 16.5627 134.321 17.0827 134.945 17.464C135.569 17.828 136.289 18.01 137.103 18.01C137.918 18.01 138.681 17.828 139.391 17.464C140.119 17.0827 140.761 16.5627 141.315 15.904C141.87 15.2453 142.303 14.4827 142.615 13.616C142.303 12.7493 141.87 11.9867 141.315 11.328C140.761 10.652 140.119 10.132 139.391 9.768C138.681 9.38667 137.918 9.196 137.103 9.196C136.289 9.196 135.569 9.38667 134.945 9.768C134.321 10.132 133.827 10.652 133.463 11.328C133.117 11.9867 132.943 12.7493 132.943 13.616ZM150.249 6.05L152.407 6.466L154.591 6.05V21H150.249V6.05ZM152.407 4.516C151.627 4.516 150.986 4.31667 150.483 3.918C149.998 3.502 149.755 2.956 149.755 2.28C149.755 1.58667 149.998 1.04067 150.483 0.641999C150.986 0.225999 151.627 0.0179989 152.407 0.0179989C153.205 0.0179989 153.846 0.225999 154.331 0.641999C154.817 1.04067 155.059 1.58667 155.059 2.28C155.059 2.956 154.817 3.502 154.331 3.918C153.846 4.31667 153.205 4.516 152.407 4.516ZM174.845 14.968C174.671 16.2333 174.177 17.3513 173.363 18.322C172.565 19.2927 171.534 20.0467 170.269 20.584C169.003 21.1213 167.591 21.39 166.031 21.39C164.263 21.39 162.703 21.0693 161.351 20.428C160.016 19.7693 158.967 18.8507 158.205 17.672C157.459 16.4933 157.087 15.1413 157.087 13.616C157.087 12.0733 157.459 10.7213 158.205 9.56C158.967 8.38133 160.016 7.46267 161.351 6.804C162.703 6.14533 164.263 5.816 166.031 5.816C167.591 5.816 169.003 6.09333 170.269 6.648C171.534 7.18533 172.565 7.93933 173.363 8.91C174.177 9.86333 174.671 10.9813 174.845 12.264H170.503C170.277 11.2587 169.757 10.4873 168.943 9.95C168.145 9.39533 167.175 9.118 166.031 9.118C165.112 9.118 164.306 9.3 163.613 9.664C162.937 10.0107 162.417 10.522 162.053 11.198C161.689 11.8567 161.507 12.6627 161.507 13.616C161.507 14.552 161.689 15.358 162.053 16.034C162.417 16.6927 162.937 17.204 163.613 17.568C164.306 17.9147 165.112 18.088 166.031 18.088C167.192 18.088 168.171 17.802 168.969 17.23C169.783 16.658 170.295 15.904 170.503 14.968H174.845ZM190.735 21L190.111 15.592L190.813 13.616L190.111 11.666L190.735 6.206H195.233L194.375 13.616L195.233 21H190.735ZM191.879 13.616C191.601 15.176 191.09 16.5453 190.345 17.724C189.617 18.8853 188.689 19.7867 187.563 20.428C186.453 21.0693 185.205 21.39 183.819 21.39C182.38 21.39 181.106 21.0693 179.997 20.428C178.887 19.7693 178.021 18.8593 177.397 17.698C176.79 16.5193 176.487 15.1587 176.487 13.616C176.487 12.056 176.79 10.6953 177.397 9.534C178.021 8.35533 178.887 7.44533 179.997 6.804C181.106 6.14533 182.38 5.816 183.819 5.816C185.205 5.816 186.453 6.13667 187.563 6.778C188.689 7.41933 189.625 8.32933 190.371 9.508C191.116 10.6693 191.619 12.0387 191.879 13.616ZM180.881 13.616C180.881 14.4827 181.054 15.2453 181.401 15.904C181.765 16.5627 182.259 17.0827 182.883 17.464C183.507 17.828 184.226 18.01 185.041 18.01C185.855 18.01 186.618 17.828 187.329 17.464C188.057 17.0827 188.698 16.5627 189.253 15.904C189.807 15.2453 190.241 14.4827 190.553 13.616C190.241 12.7493 189.807 11.9867 189.253 11.328C188.698 10.652 188.057 10.132 187.329 9.768C186.618 9.38667 185.855 9.196 185.041 9.196C184.226 9.196 183.507 9.38667 182.883 9.768C182.259 10.132 181.765 10.652 181.401 11.328C181.054 11.9867 180.881 12.7493 180.881 13.616ZM198.136 0.979999H202.478V21H198.136V0.979999Z" fill="black"/>
<path d="M20.447 41.985C20.2783 43.4417 19.7647 44.7297 18.906 45.849C18.0627 46.953 16.9433 47.8117 15.548 48.425C14.168 49.0383 12.5887 49.345 10.81 49.345C8.84733 49.345 7.12233 48.9693 5.635 48.218C4.163 47.4667 3.013 46.424 2.185 45.09C1.357 43.7407 0.943 42.169 0.943 40.375C0.943 38.581 1.357 37.017 2.185 35.683C3.013 34.3337 4.163 33.2833 5.635 32.532C7.12233 31.7807 8.84733 31.405 10.81 31.405C12.5887 31.405 14.168 31.7117 15.548 32.325C16.9433 32.9383 18.0627 33.797 18.906 34.901C19.7647 36.005 20.2783 37.293 20.447 38.765H16.514C16.3607 37.9523 16.031 37.2547 15.525 36.672C15.019 36.074 14.3673 35.614 13.57 35.292C12.7727 34.97 11.845 34.809 10.787 34.809C9.57567 34.809 8.52533 35.039 7.636 35.499C6.762 35.9437 6.08733 36.5877 5.612 37.431C5.13667 38.259 4.899 39.2403 4.899 40.375C4.899 41.5097 5.13667 42.4987 5.612 43.342C6.08733 44.17 6.762 44.814 7.636 45.274C8.52533 45.7187 9.57567 45.941 10.787 45.941C11.845 45.941 12.7727 45.7877 13.57 45.481C14.3673 45.159 15.019 44.7067 15.525 44.124C16.031 43.526 16.3607 42.813 16.514 41.985H20.447ZM30.1277 49.345C28.5023 49.345 27.0763 49.0613 25.8497 48.494C24.623 47.9113 23.6647 47.1063 22.9747 46.079C22.2847 45.0363 21.9397 43.8327 21.9397 42.468C21.9397 41.088 22.2847 39.8843 22.9747 38.857C23.6647 37.8143 24.623 37.0093 25.8497 36.442C27.0763 35.8593 28.5023 35.568 30.1277 35.568C31.753 35.568 33.179 35.8593 34.4057 36.442C35.6323 37.0093 36.583 37.8143 37.2577 38.857C37.9477 39.8843 38.2927 41.088 38.2927 42.468C38.2927 43.8327 37.9477 45.0363 37.2577 46.079C36.583 47.1063 35.6323 47.9113 34.4057 48.494C33.179 49.0613 31.753 49.345 30.1277 49.345ZM30.1277 46.424C31.017 46.424 31.776 46.263 32.4047 45.941C33.0487 45.619 33.5393 45.1667 33.8767 44.584C34.2293 43.986 34.4057 43.2807 34.4057 42.468C34.4057 41.64 34.2293 40.9347 33.8767 40.352C33.5393 39.754 33.0487 39.294 32.4047 38.972C31.776 38.65 31.017 38.489 30.1277 38.489C29.2537 38.489 28.4947 38.65 27.8507 38.972C27.2067 39.294 26.7083 39.754 26.3557 40.352C26.0183 40.9347 25.8497 41.64 25.8497 42.468C25.8497 43.2807 26.0183 43.986 26.3557 44.584C26.7083 45.1667 27.2067 45.619 27.8507 45.941C28.4947 46.263 29.2537 46.424 30.1277 46.424ZM39.8651 35.913H43.7061L44.5341 40.904V49H40.6931V40.329L39.8651 35.913ZM49.2031 35.568C50.3684 35.568 51.3651 35.821 52.1931 36.327C53.0211 36.8177 53.6498 37.523 54.0791 38.443C54.5238 39.363 54.7461 40.4593 54.7461 41.732V49H50.9051V42.307C50.9051 41.1263 50.6444 40.237 50.1231 39.639C49.6171 39.0257 48.8734 38.719 47.8921 38.719C47.2021 38.719 46.6041 38.8877 46.0981 39.225C45.5921 39.547 45.2011 39.9993 44.9251 40.582C44.6644 41.1647 44.5341 41.8623 44.5341 42.675L43.2691 42.008C43.4224 40.628 43.7751 39.4627 44.3271 38.512C44.8791 37.5613 45.5691 36.833 46.3971 36.327C47.2404 35.821 48.1758 35.568 49.2031 35.568ZM59.3921 35.568C60.5574 35.568 61.5541 35.821 62.3821 36.327C63.2254 36.8177 63.8618 37.523 64.2911 38.443C64.7358 39.363 64.9581 40.4593 64.9581 41.732V49H61.1171V42.307C61.1171 41.1263 60.8564 40.237 60.3351 39.639C59.8291 39.0257 59.0854 38.719 58.1041 38.719C57.4141 38.719 56.8161 38.8877 56.3101 39.225C55.8041 39.547 55.4131 39.9993 55.1371 40.582C54.8764 41.1647 54.7461 41.8623 54.7461 42.675L53.4811 42.008C53.6344 40.628 53.9871 39.4627 54.5391 38.512C55.0911 37.5613 55.7811 36.833 56.6091 36.327C57.4524 35.821 58.3801 35.568 59.3921 35.568ZM67.6638 35.913H71.5048V40.076L71.3438 40.582V43.733L71.5048 44.676V52.795H67.6638V35.913ZM70.1708 42.468C70.4315 41.0727 70.8838 39.8613 71.5278 38.834C72.1872 37.7913 73.0075 36.9863 73.9888 36.419C74.9855 35.8517 76.0895 35.568 77.3008 35.568C78.5888 35.568 79.7158 35.8593 80.6818 36.442C81.6632 37.0093 82.4298 37.8143 82.9818 38.857C83.5338 39.8843 83.8098 41.088 83.8098 42.468C83.8098 43.8327 83.5338 45.0363 82.9818 46.079C82.4298 47.1063 81.6632 47.9113 80.6818 48.494C79.7158 49.0613 78.5888 49.345 77.3008 49.345C76.0742 49.345 74.9702 49.0613 73.9888 48.494C73.0228 47.9267 72.2102 47.1293 71.5508 46.102C70.8915 45.0593 70.4315 43.848 70.1708 42.468ZM79.9228 42.468C79.9228 41.7013 79.7618 41.0267 79.4398 40.444C79.1332 39.846 78.7038 39.386 78.1518 39.064C77.5998 38.7267 76.9635 38.558 76.2428 38.558C75.5222 38.558 74.8398 38.7267 74.1958 39.064C73.5518 39.386 72.9845 39.846 72.4938 40.444C72.0185 41.0267 71.6428 41.7013 71.3668 42.468C71.6428 43.2347 72.0185 43.9093 72.4938 44.492C72.9845 45.0747 73.5518 45.5347 74.1958 45.872C74.8398 46.194 75.5222 46.355 76.2428 46.355C76.9635 46.355 77.5998 46.194 78.1518 45.872C78.7038 45.5347 79.1332 45.0747 79.4398 44.492C79.7618 43.9093 79.9228 43.2347 79.9228 42.468ZM93.4424 49.345C91.8937 49.345 90.506 49.0613 89.2794 48.494C88.068 47.9113 87.1097 47.0987 86.4044 46.056C85.7144 45.0133 85.3694 43.802 85.3694 42.422C85.3694 41.0573 85.699 39.8613 86.3584 38.834C87.033 37.8067 87.953 37.0093 89.1184 36.442C90.2837 35.8593 91.61 35.568 93.0974 35.568C94.6154 35.568 95.9187 35.9053 97.0074 36.58C98.096 37.2393 98.9317 38.1747 99.5144 39.386C100.112 40.5973 100.411 42.0233 100.411 43.664H88.4514V41.111H98.3414L96.8464 42.031C96.785 41.2643 96.5934 40.6127 96.2714 40.076C95.9647 39.5393 95.543 39.1253 95.0064 38.834C94.4697 38.5427 93.841 38.397 93.1204 38.397C92.3384 38.397 91.656 38.558 91.0734 38.88C90.506 39.1867 90.0614 39.6237 89.7394 40.191C89.4327 40.743 89.2794 41.3947 89.2794 42.146C89.2794 43.0507 89.4787 43.825 89.8774 44.469C90.276 45.113 90.8587 45.6037 91.6254 45.941C92.392 46.2783 93.3197 46.447 94.4084 46.447C95.3897 46.447 96.3787 46.309 97.3754 46.033C98.372 45.7417 99.269 45.3353 100.066 44.814V47.39C99.2077 48.0033 98.2034 48.4863 97.0534 48.839C95.9187 49.1763 94.715 49.345 93.4424 49.345ZM101.054 38.811V37.109L103.791 36.212L105.424 32.463H107.632V35.913H113.428V38.811H107.632V43.572C107.632 44.584 107.839 45.297 108.253 45.711C108.683 46.1097 109.419 46.309 110.461 46.309C111.121 46.309 111.703 46.2477 112.209 46.125C112.715 46.0023 113.198 45.826 113.658 45.596V48.586C113.214 48.77 112.623 48.9387 111.887 49.092C111.151 49.2607 110.392 49.345 109.61 49.345C108.246 49.345 107.134 49.1303 106.275 48.701C105.432 48.2563 104.803 47.643 104.389 46.861C103.991 46.079 103.791 45.1667 103.791 44.124V38.811H101.054ZM122.664 49.345C121.115 49.345 119.728 49.0613 118.501 48.494C117.29 47.9113 116.331 47.0987 115.626 46.056C114.936 45.0133 114.591 43.802 114.591 42.422C114.591 41.0573 114.921 39.8613 115.58 38.834C116.255 37.8067 117.175 37.0093 118.34 36.442C119.505 35.8593 120.832 35.568 122.319 35.568C123.837 35.568 125.14 35.9053 126.229 36.58C127.318 37.2393 128.153 38.1747 128.736 39.386C129.334 40.5973 129.633 42.0233 129.633 43.664H117.673V41.111H127.563L126.068 42.031C126.007 41.2643 125.815 40.6127 125.493 40.076C125.186 39.5393 124.765 39.1253 124.228 38.834C123.691 38.5427 123.063 38.397 122.342 38.397C121.56 38.397 120.878 38.558 120.295 38.88C119.728 39.1867 119.283 39.6237 118.961 40.191C118.654 40.743 118.501 41.3947 118.501 42.146C118.501 43.0507 118.7 43.825 119.099 44.469C119.498 45.113 120.08 45.6037 120.847 45.941C121.614 46.2783 122.541 46.447 123.63 46.447C124.611 46.447 125.6 46.309 126.597 46.033C127.594 45.7417 128.491 45.3353 129.288 44.814V47.39C128.429 48.0033 127.425 48.4863 126.275 48.839C125.14 49.1763 123.937 49.345 122.664 49.345ZM131.214 35.913H135.055L135.883 40.904V49H132.042V40.329L131.214 35.913ZM140.874 35.568C142.116 35.568 143.174 35.821 144.048 36.327C144.922 36.8177 145.589 37.523 146.049 38.443C146.509 39.363 146.739 40.4593 146.739 41.732V49H142.898V42.307C142.898 41.1263 142.614 40.237 142.047 39.639C141.479 39.0257 140.651 38.719 139.563 38.719C138.827 38.719 138.175 38.8877 137.608 39.225C137.056 39.547 136.626 39.9993 136.32 40.582C136.028 41.1647 135.883 41.8623 135.883 42.675L134.618 42.008C134.771 40.628 135.139 39.4627 135.722 38.512C136.304 37.5613 137.04 36.833 137.93 36.327C138.819 35.821 139.8 35.568 140.874 35.568ZM164.463 43.664C164.31 44.7833 163.873 45.7723 163.152 46.631C162.447 47.4897 161.534 48.1567 160.415 48.632C159.296 49.1073 158.046 49.345 156.666 49.345C155.102 49.345 153.722 49.0613 152.526 48.494C151.345 47.9113 150.418 47.0987 149.743 46.056C149.084 45.0133 148.754 43.8173 148.754 42.468C148.754 41.1033 149.084 39.9073 149.743 38.88C150.418 37.8373 151.345 37.0247 152.526 36.442C153.722 35.8593 155.102 35.568 156.666 35.568C158.046 35.568 159.296 35.8133 160.415 36.304C161.534 36.7793 162.447 37.4463 163.152 38.305C163.873 39.1483 164.31 40.1373 164.463 41.272H160.622C160.423 40.3827 159.963 39.7003 159.242 39.225C158.537 38.7343 157.678 38.489 156.666 38.489C155.853 38.489 155.14 38.65 154.527 38.972C153.929 39.2787 153.469 39.731 153.147 40.329C152.825 40.9117 152.664 41.6247 152.664 42.468C152.664 43.296 152.825 44.009 153.147 44.607C153.469 45.1897 153.929 45.642 154.527 45.964C155.14 46.2707 155.853 46.424 156.666 46.424C157.693 46.424 158.56 46.171 159.265 45.665C159.986 45.159 160.438 44.492 160.622 43.664H164.463ZM166.537 35.775L168.446 36.143L170.378 35.775V49H166.537V35.775ZM168.446 34.418C167.756 34.418 167.189 34.2417 166.744 33.889C166.315 33.521 166.1 33.038 166.1 32.44C166.1 31.8267 166.315 31.3437 166.744 30.991C167.189 30.623 167.756 30.439 168.446 30.439C169.151 30.439 169.719 30.623 170.148 30.991C170.577 31.3437 170.792 31.8267 170.792 32.44C170.792 33.038 170.577 33.521 170.148 33.889C169.719 34.2417 169.151 34.418 168.446 34.418ZM180.658 49.345C179.11 49.345 177.722 49.0613 176.495 48.494C175.284 47.9113 174.326 47.0987 173.62 46.056C172.93 45.0133 172.585 43.802 172.585 42.422C172.585 41.0573 172.915 39.8613 173.574 38.834C174.249 37.8067 175.169 37.0093 176.334 36.442C177.5 35.8593 178.826 35.568 180.313 35.568C181.831 35.568 183.135 35.9053 184.223 36.58C185.312 37.2393 186.148 38.1747 186.73 39.386C187.328 40.5973 187.627 42.0233 187.627 43.664H175.667V41.111H185.557L184.062 42.031C184.001 41.2643 183.809 40.6127 183.487 40.076C183.181 39.5393 182.759 39.1253 182.222 38.834C181.686 38.5427 181.057 38.397 180.336 38.397C179.554 38.397 178.872 38.558 178.289 38.88C177.722 39.1867 177.277 39.6237 176.955 40.191C176.649 40.743 176.495 41.3947 176.495 42.146C176.495 43.0507 176.695 43.825 177.093 44.469C177.492 45.113 178.075 45.6037 178.841 45.941C179.608 46.2783 180.536 46.447 181.624 46.447C182.606 46.447 183.595 46.309 184.591 46.033C185.588 45.7417 186.485 45.3353 187.282 44.814V47.39C186.424 48.0033 185.419 48.4863 184.269 48.839C183.135 49.1763 181.931 49.345 180.658 49.345ZM204.203 44.883C204.203 45.8183 203.927 46.6233 203.375 47.298C202.838 47.9727 202.033 48.4863 200.96 48.839C199.886 49.1763 198.575 49.345 197.027 49.345C195.432 49.345 194.044 49.1533 192.864 48.77C191.683 48.3713 190.763 47.8117 190.104 47.091C189.444 46.3703 189.092 45.5347 189.046 44.584H192.956C193.048 45.0133 193.278 45.389 193.646 45.711C194.014 46.0177 194.489 46.2553 195.072 46.424C195.67 46.5927 196.36 46.677 197.142 46.677C198.23 46.677 199.051 46.5543 199.603 46.309C200.17 46.0637 200.454 45.6957 200.454 45.205C200.454 44.8523 200.254 44.584 199.856 44.4C199.472 44.216 198.759 44.078 197.717 43.986L195.279 43.802C193.822 43.6793 192.664 43.434 191.806 43.066C190.947 42.698 190.334 42.238 189.966 41.686C189.613 41.1187 189.437 40.4977 189.437 39.823C189.437 38.8877 189.728 38.1057 190.311 37.477C190.893 36.8483 191.706 36.373 192.749 36.051C193.807 35.729 195.026 35.568 196.406 35.568C197.816 35.568 199.074 35.7597 200.178 36.143C201.282 36.5263 202.163 37.0553 202.823 37.73C203.497 38.4047 203.881 39.1867 203.973 40.076H200.063C200.001 39.754 199.825 39.455 199.534 39.179C199.258 38.8877 198.851 38.65 198.315 38.466C197.778 38.282 197.08 38.19 196.222 38.19C195.256 38.19 194.512 38.305 193.991 38.535C193.469 38.7497 193.209 39.0793 193.209 39.524C193.209 39.8307 193.37 40.0837 193.692 40.283C194.014 40.467 194.612 40.5973 195.486 40.674L198.66 40.927C200.07 41.0497 201.182 41.2873 201.995 41.64C202.807 41.9773 203.375 42.422 203.697 42.974C204.034 43.526 204.203 44.1623 204.203 44.883Z" fill="#008070"/>
</svg>
