<svg width="1217" height="246" viewBox="0 0 1217 246" fill="none" xmlns="http://www.w3.org/2000/svg">
<g clip-path="url(#clip0_22_61)">
<rect x="163.966" y="125" width="195" height="71" rx="35.5" transform="rotate(17.1754 163.966 125)" fill="#7A62DB"/>
<path d="M201.186 186.619L202.837 181.276C203.372 181.442 203.861 181.446 204.303 181.29C204.745 181.133 205.146 180.851 205.506 180.443C205.874 180.038 206.217 179.541 206.533 178.952C206.851 178.355 207.154 177.712 207.443 177.022C207.817 176.108 208.175 175.21 208.515 174.327C208.857 173.436 209.205 172.514 209.558 171.56C209.922 170.6 210.318 169.563 210.746 168.448L221.505 171.798L217.203 185.716L218.441 186.099L216.79 191.442L214.038 190.591L214.889 187.84L204.8 184.721L203.949 187.473L201.186 186.619ZM207.137 182.605L214.44 184.862L217.941 173.535L212.468 171.818C212.166 172.604 211.889 173.339 211.636 174.023C211.392 174.701 211.134 175.388 210.861 176.082C210.595 176.779 210.291 177.534 209.947 178.349C209.615 179.151 209.319 179.813 209.057 180.335C208.803 180.859 208.529 181.298 208.235 181.651C207.944 181.996 207.578 182.314 207.137 182.605ZM234.72 180.404L230.892 192.786L228.244 191.968L230.742 183.885L222.351 190.146L220.138 189.462L223.965 177.08L226.614 177.899L224.179 185.775L232.53 179.727L234.72 180.404ZM238.408 195.486C237.231 195.122 236.234 194.542 235.417 193.745C234.6 192.948 234.045 192.032 233.754 190.995L236.383 190.213C236.663 190.877 237.03 191.438 237.483 191.896C237.938 192.347 238.498 192.675 239.163 192.881C239.859 193.096 240.452 193.112 240.944 192.929C241.436 192.746 241.761 192.398 241.92 191.886C242.059 191.435 242.023 191.077 241.812 190.811C241.604 190.537 241.288 190.314 240.864 190.141C240.44 189.968 239.98 189.805 239.483 189.651L238.566 189.368L239.243 187.178L240.148 187.458C240.844 187.673 241.45 187.772 241.965 187.756C242.489 187.741 242.836 187.459 243.006 186.909C243.159 186.412 243.085 186.004 242.781 185.684C242.481 185.357 242.086 185.117 241.597 184.966C241 184.782 240.373 184.726 239.714 184.799C239.055 184.872 238.441 185.017 237.871 185.234L236.893 182.872C237.77 182.473 238.687 182.229 239.644 182.14C240.604 182.043 241.565 182.143 242.528 182.441C243.323 182.686 244.022 183.053 244.625 183.541C245.235 184.031 245.665 184.616 245.916 185.296C246.174 185.979 246.177 186.725 245.927 187.536C245.747 188.116 245.452 188.624 245.042 189.058C244.639 189.495 244.095 189.858 243.411 190.149L243.653 189.244C244.019 189.55 244.299 189.904 244.492 190.308C244.694 190.713 244.806 191.15 244.829 191.617C244.859 192.087 244.801 192.559 244.655 193.033C244.388 193.897 243.933 194.556 243.29 195.01C242.647 195.465 241.896 195.727 241.038 195.796C240.186 195.868 239.31 195.765 238.408 195.486ZM249.403 198.884C248.509 198.608 247.804 198.206 247.289 197.678C246.776 197.143 246.447 196.543 246.3 195.878C246.162 195.215 246.198 194.544 246.408 193.864C246.592 193.268 246.857 192.763 247.202 192.351C247.55 191.931 247.983 191.613 248.502 191.396C249.023 191.172 249.647 191.051 250.373 191.032C250.919 191.025 251.545 191.06 252.25 191.135C252.963 191.213 253.726 191.319 254.538 191.453C255.361 191.582 256.22 191.714 257.117 191.848L255.957 192.105C256.229 191.252 256.233 190.562 255.968 190.036C255.704 189.511 255.109 189.105 254.184 188.819C253.626 188.647 253.047 188.61 252.447 188.709C251.847 188.809 251.346 189.144 250.944 189.714L248.666 188.143C249.295 187.191 250.136 186.53 251.188 186.16C252.248 185.792 253.508 185.834 254.967 186.285C256.068 186.626 256.979 187.104 257.702 187.721C258.431 188.34 258.872 189.121 259.025 190.064C259.112 190.568 259.107 191.057 259.011 191.529C258.918 191.995 258.788 192.495 258.623 193.03L256.274 200.631L253.854 199.883L254.684 197.2L254.95 197.76C254.116 198.482 253.259 198.937 252.38 199.126C251.511 199.31 250.519 199.229 249.403 198.884ZM250.634 196.853C251.26 197.047 251.83 197.101 252.341 197.017C252.853 196.932 253.289 196.769 253.648 196.529C254.015 196.29 254.288 196.044 254.467 195.789C254.721 195.483 254.925 195.106 255.079 194.66C255.244 194.208 255.37 193.841 255.458 193.559L256.228 194.073C255.355 193.945 254.605 193.839 253.978 193.754C253.351 193.669 252.809 193.607 252.353 193.566C251.899 193.518 251.491 193.496 251.129 193.502C250.773 193.517 250.46 193.567 250.191 193.652C249.922 193.736 249.696 193.859 249.512 194.019C249.336 194.183 249.207 194.398 249.124 194.666C249.03 194.971 249.022 195.266 249.102 195.551C249.184 195.827 249.349 196.079 249.597 196.306C249.852 196.536 250.198 196.718 250.634 196.853ZM269.239 189.541C268.604 189.345 268.072 189.009 267.641 188.532C267.211 188.056 266.919 187.509 266.766 186.893C266.616 186.269 266.64 185.635 266.839 184.993L268.994 185.66C268.881 186.026 268.91 186.379 269.082 186.717C269.264 187.049 269.538 187.272 269.905 187.385C270.272 187.499 270.62 187.468 270.95 187.294C271.291 187.115 271.517 186.841 271.631 186.475L273.786 187.141C273.588 187.783 273.25 188.319 272.774 188.75C272.3 189.172 271.751 189.459 271.127 189.609C270.502 189.76 269.873 189.737 269.239 189.541ZM273.817 192.488L269.989 204.87L267.341 204.052L269.839 195.969L261.448 202.23L259.235 201.546L263.062 189.164L265.711 189.983L263.276 197.859L271.627 191.811L273.817 192.488ZM273.186 205.858L277.013 193.476L279.776 194.33L278.266 199.214L283.827 200.933L285.336 196.049L288.099 196.903L284.272 209.285L281.509 208.431L283.026 203.524L277.466 201.805L275.949 206.712L273.186 205.858Z" fill="white"/>
<rect x="350" y="175" width="235" height="71" rx="35.5" fill="#12B396"/>
<path d="M403.48 220L408.928 202.72H413.164L418.612 220H415.636L410.692 204.496H411.34L406.456 220H403.48ZM406.516 216.256V213.556H415.588V216.256H406.516ZM420.758 220V207.04H423.65V212.152H429.47V207.04H432.362V220H429.47V214.864H423.65V220H420.758ZM439.335 220.36C438.399 220.36 437.607 220.184 436.959 219.832C436.311 219.472 435.819 218.996 435.483 218.404C435.155 217.812 434.991 217.16 434.991 216.448C434.991 215.824 435.095 215.264 435.303 214.768C435.511 214.264 435.831 213.832 436.263 213.472C436.695 213.104 437.255 212.804 437.943 212.572C438.463 212.404 439.071 212.252 439.767 212.116C440.471 211.98 441.231 211.856 442.047 211.744C442.871 211.624 443.731 211.496 444.627 211.36L443.595 211.948C443.603 211.052 443.403 210.392 442.995 209.968C442.587 209.544 441.899 209.332 440.931 209.332C440.347 209.332 439.783 209.468 439.239 209.74C438.695 210.012 438.315 210.48 438.099 211.144L435.459 210.316C435.779 209.22 436.387 208.34 437.283 207.676C438.187 207.012 439.403 206.68 440.931 206.68C442.083 206.68 443.095 206.868 443.967 207.244C444.847 207.62 445.499 208.236 445.923 209.092C446.155 209.548 446.295 210.016 446.343 210.496C446.391 210.968 446.415 211.484 446.415 212.044V220H443.883V217.192L444.303 217.648C443.719 218.584 443.035 219.272 442.251 219.712C441.475 220.144 440.503 220.36 439.335 220.36ZM439.911 218.056C440.567 218.056 441.127 217.94 441.591 217.708C442.055 217.476 442.423 217.192 442.695 216.856C442.975 216.52 443.163 216.204 443.259 215.908C443.411 215.54 443.495 215.12 443.511 214.648C443.535 214.168 443.547 213.78 443.547 213.484L444.435 213.748C443.563 213.884 442.815 214.004 442.191 214.108C441.567 214.212 441.031 214.312 440.583 214.408C440.135 214.496 439.739 214.596 439.395 214.708C439.059 214.828 438.775 214.968 438.543 215.128C438.311 215.288 438.131 215.472 438.003 215.68C437.883 215.888 437.823 216.132 437.823 216.412C437.823 216.732 437.903 217.016 438.063 217.264C438.223 217.504 438.455 217.696 438.759 217.84C439.071 217.984 439.455 218.056 439.911 218.056ZM448.339 220V217.576C448.811 217.664 449.175 217.656 449.431 217.552C449.687 217.44 449.879 217.232 450.007 216.928C450.135 216.624 450.247 216.22 450.343 215.716C450.471 215.004 450.583 214.184 450.679 213.256C450.783 212.328 450.871 211.336 450.943 210.28C451.023 209.224 451.095 208.144 451.159 207.04H460.699V220H457.819V209.752H453.703C453.663 210.272 453.615 210.856 453.559 211.504C453.503 212.144 453.443 212.792 453.379 213.448C453.315 214.104 453.243 214.728 453.163 215.32C453.091 215.904 453.015 216.404 452.935 216.82C452.751 217.756 452.487 218.496 452.143 219.04C451.807 219.584 451.335 219.932 450.727 220.084C450.119 220.244 449.323 220.216 448.339 220ZM475.303 207.04V220H472.531V211.54L466.363 220H464.047V207.04H466.819V215.284L473.011 207.04H475.303ZM481.924 220V209.608H477.592V207.04H489.148V209.608H484.816V220H481.924ZM502.654 207.04V220H499.882V211.54L493.714 220H491.398V207.04H494.17V215.284L500.362 207.04H502.654ZM506 220L506.024 207.04H508.952V213.28L513.692 207.04H517.304L512.276 213.52L517.736 220H513.908L508.952 213.76V220H506ZM522.562 220.36C521.626 220.36 520.834 220.184 520.186 219.832C519.538 219.472 519.046 218.996 518.71 218.404C518.382 217.812 518.218 217.16 518.218 216.448C518.218 215.824 518.322 215.264 518.53 214.768C518.738 214.264 519.058 213.832 519.49 213.472C519.922 213.104 520.482 212.804 521.17 212.572C521.69 212.404 522.298 212.252 522.994 212.116C523.698 211.98 524.458 211.856 525.274 211.744C526.098 211.624 526.958 211.496 527.854 211.36L526.822 211.948C526.83 211.052 526.63 210.392 526.222 209.968C525.814 209.544 525.126 209.332 524.158 209.332C523.574 209.332 523.01 209.468 522.466 209.74C521.922 210.012 521.542 210.48 521.326 211.144L518.686 210.316C519.006 209.22 519.614 208.34 520.51 207.676C521.414 207.012 522.63 206.68 524.158 206.68C525.31 206.68 526.322 206.868 527.194 207.244C528.074 207.62 528.726 208.236 529.15 209.092C529.382 209.548 529.522 210.016 529.57 210.496C529.618 210.968 529.642 211.484 529.642 212.044V220H527.11V217.192L527.53 217.648C526.946 218.584 526.262 219.272 525.478 219.712C524.702 220.144 523.73 220.36 522.562 220.36ZM523.138 218.056C523.794 218.056 524.354 217.94 524.818 217.708C525.282 217.476 525.65 217.192 525.922 216.856C526.202 216.52 526.39 216.204 526.486 215.908C526.638 215.54 526.722 215.12 526.738 214.648C526.762 214.168 526.774 213.78 526.774 213.484L527.662 213.748C526.79 213.884 526.042 214.004 525.418 214.108C524.794 214.212 524.258 214.312 523.81 214.408C523.362 214.496 522.966 214.596 522.622 214.708C522.286 214.828 522.002 214.968 521.77 215.128C521.538 215.288 521.358 215.472 521.23 215.68C521.11 215.888 521.05 216.132 521.05 216.412C521.05 216.732 521.13 217.016 521.29 217.264C521.45 217.504 521.682 217.696 521.986 217.84C522.298 217.984 522.682 218.056 523.138 218.056Z" fill="white"/>
<g clip-path="url(#clip1_22_61)">
<rect x="302" y="121.095" width="236" height="71" rx="35.5" transform="rotate(-14.2508 302 121.095)" fill="#DA65DE"/>
<path d="M366.075 151.25L361.821 134.502L364.345 133.861L373.15 144.253L375.929 130.919L378.453 130.278L382.707 147.026L380.09 147.691L377.363 136.955L374.949 148.996L373.833 149.28L365.977 139.847L368.703 150.583L366.075 151.25ZM389.575 145.653C388.668 145.883 387.857 145.908 387.143 145.726C386.426 145.537 385.832 145.196 385.36 144.705C384.897 144.212 384.577 143.621 384.402 142.931C384.249 142.326 384.211 141.757 384.291 141.225C384.368 140.686 384.572 140.188 384.902 139.733C385.231 139.27 385.699 138.841 386.309 138.447C386.772 138.156 387.324 137.859 387.965 137.556C388.614 137.251 389.32 136.944 390.083 136.634C390.852 136.315 391.654 135.979 392.489 135.627L391.634 136.451C391.421 135.581 391.064 134.99 390.565 134.68C390.065 134.369 389.346 134.333 388.408 134.571C387.842 134.715 387.328 134.986 386.868 135.383C386.408 135.781 386.155 136.328 386.109 137.025L383.346 136.872C383.387 135.731 383.759 134.728 384.464 133.864C385.177 132.998 386.274 132.377 387.755 132.001C388.871 131.717 389.898 131.65 390.836 131.8C391.782 131.948 392.565 132.385 393.187 133.11C393.524 133.495 393.775 133.914 393.94 134.367C394.102 134.813 394.253 135.307 394.39 135.85L396.349 143.561L393.895 144.184L393.204 141.463L393.723 141.801C393.387 142.852 392.894 143.687 392.242 144.307C391.596 144.917 390.708 145.365 389.575 145.653ZM389.567 143.278C390.202 143.116 390.717 142.866 391.109 142.527C391.502 142.188 391.789 141.822 391.969 141.43C392.158 141.035 392.263 140.682 392.283 140.372C392.339 139.978 392.318 139.55 392.217 139.089C392.122 138.617 392.038 138.238 391.965 137.952L392.891 137.989C392.079 138.335 391.384 138.636 390.805 138.89C390.225 139.145 389.73 139.373 389.32 139.577C388.907 139.772 388.548 139.967 388.242 140.16C387.946 140.359 387.705 140.565 387.52 140.777C387.334 140.989 387.205 141.212 387.132 141.445C387.067 141.676 387.069 141.927 387.138 142.199C387.217 142.509 387.364 142.764 387.58 142.965C387.795 143.158 388.067 143.287 388.397 143.352C388.735 143.415 389.125 143.39 389.567 143.278ZM405.502 141.608C404.277 141.919 403.176 141.889 402.198 141.518C401.221 141.147 400.396 140.515 399.723 139.621C399.048 138.72 398.552 137.645 398.235 136.396C397.914 135.132 397.836 133.947 398.001 132.84C398.166 131.734 398.578 130.791 399.239 130.013C399.905 129.224 400.836 128.679 402.03 128.375C403.216 128.074 404.317 128.104 405.333 128.465C406.355 128.816 407.234 129.431 407.968 130.309C408.701 131.179 409.229 132.25 409.552 133.522C409.871 134.778 409.921 135.966 409.702 137.087C409.483 138.207 409.017 139.167 408.304 139.967C407.591 140.768 406.657 141.314 405.502 141.608ZM400.772 148.381L396.163 130.237L398.641 129.608L400.88 138.424L401.229 138.335L403.598 147.663L400.772 148.381ZM404.434 139.205C405.162 139.02 405.717 138.685 406.097 138.2C406.478 137.716 406.702 137.135 406.769 136.457C406.842 135.77 406.781 135.043 406.586 134.275C406.393 133.515 406.102 132.855 405.712 132.294C405.319 131.725 404.833 131.32 404.252 131.08C403.669 130.831 403.001 130.803 402.249 130.994C401.536 131.175 400.998 131.497 400.637 131.96C400.274 132.416 400.063 132.981 400.003 133.657C399.95 134.322 400.027 135.066 400.236 135.888C400.443 136.702 400.729 137.393 401.096 137.96C401.471 138.525 401.931 138.924 402.478 139.157C403.029 139.38 403.681 139.396 404.434 139.205ZM413.688 139.157L410.521 126.59L413.358 125.869L414.895 131.917L417.953 124.703L421.453 123.813L418.175 131.332L425.063 136.268L421.352 137.211L415.013 132.383L416.549 138.431L413.688 139.157ZM431.573 134.986C430.301 135.309 429.114 135.318 428.013 135.011C426.912 134.705 425.966 134.132 425.175 133.293C424.392 132.452 423.839 131.396 423.516 130.124C423.167 128.752 423.128 127.494 423.4 126.353C423.669 125.203 424.202 124.23 424.998 123.433C425.795 122.637 426.809 122.082 428.042 121.769C429.345 121.438 430.528 121.463 431.59 121.846C432.659 122.218 433.555 122.902 434.279 123.899C435.002 124.896 435.501 126.16 435.774 127.692L432.994 128.398L432.734 127.374C432.38 126.011 431.887 125.076 431.254 124.568C430.622 124.06 429.798 123.935 428.782 124.193C427.634 124.485 426.872 125.058 426.495 125.913C426.116 126.76 426.099 127.867 426.446 129.231C426.769 130.503 427.298 131.417 428.034 131.973C428.769 132.529 429.672 132.671 430.742 132.399C431.432 132.224 431.987 131.922 432.406 131.494C432.832 131.055 433.106 130.511 433.23 129.861L436.211 129.995C436.017 131.249 435.497 132.318 434.648 133.202C433.807 134.084 432.782 134.679 431.573 134.986ZM425.76 130.235L425.222 128.118L433.864 125.923L434.402 128.04L425.76 130.235ZM442.532 131.831L439.974 121.759L435.775 122.826L435.143 120.337L446.344 117.492L446.976 119.981L442.777 121.047L445.335 131.119L442.532 131.831ZM459.434 114.167L462.624 126.728L459.938 127.411L457.855 119.211L453.959 128.929L451.715 129.499L448.524 116.938L451.211 116.256L453.24 124.246L457.213 114.731L459.434 114.167ZM465.867 125.905L462.677 113.344L465.48 112.632L466.738 117.586L472.379 116.154L471.121 111.199L473.924 110.487L477.114 123.048L474.311 123.76L473.047 118.782L467.406 120.215L468.67 125.193L465.867 125.905ZM480.36 122.224L477.17 109.662L486.126 107.388L486.793 110.016L480.641 111.579L483.163 121.512L480.36 122.224Z" fill="white"/>
</g>
<rect x="788" y="175" width="245" height="71" rx="35.5" fill="#D6CCFF"/>
<path d="M842.68 220V202.72H849.82C849.988 202.72 850.204 202.728 850.468 202.744C850.732 202.752 850.976 202.776 851.2 202.816C852.2 202.968 853.024 203.3 853.672 203.812C854.328 204.324 854.812 204.972 855.124 205.756C855.444 206.532 855.604 207.396 855.604 208.348C855.604 209.292 855.444 210.156 855.124 210.94C854.804 211.716 854.316 212.36 853.66 212.872C853.012 213.384 852.192 213.716 851.2 213.868C850.976 213.9 850.728 213.924 850.456 213.94C850.192 213.956 849.98 213.964 849.82 213.964H845.572V220H842.68ZM845.572 211.264H849.7C849.86 211.264 850.04 211.256 850.24 211.24C850.44 211.224 850.624 211.192 850.792 211.144C851.272 211.024 851.648 210.812 851.92 210.508C852.2 210.204 852.396 209.86 852.508 209.476C852.628 209.092 852.688 208.716 852.688 208.348C852.688 207.98 852.628 207.604 852.508 207.22C852.396 206.828 852.2 206.48 851.92 206.176C851.648 205.872 851.272 205.66 850.792 205.54C850.624 205.492 850.44 205.464 850.24 205.456C850.04 205.44 849.86 205.432 849.7 205.432H845.572V211.264ZM861.632 220.36C860.696 220.36 859.904 220.184 859.256 219.832C858.608 219.472 858.116 218.996 857.78 218.404C857.452 217.812 857.288 217.16 857.288 216.448C857.288 215.824 857.392 215.264 857.6 214.768C857.808 214.264 858.128 213.832 858.56 213.472C858.992 213.104 859.552 212.804 860.24 212.572C860.76 212.404 861.368 212.252 862.064 212.116C862.768 211.98 863.528 211.856 864.344 211.744C865.168 211.624 866.028 211.496 866.924 211.36L865.892 211.948C865.9 211.052 865.7 210.392 865.292 209.968C864.884 209.544 864.196 209.332 863.228 209.332C862.644 209.332 862.08 209.468 861.536 209.74C860.992 210.012 860.612 210.48 860.396 211.144L857.756 210.316C858.076 209.22 858.684 208.34 859.58 207.676C860.484 207.012 861.7 206.68 863.228 206.68C864.38 206.68 865.392 206.868 866.264 207.244C867.144 207.62 867.796 208.236 868.22 209.092C868.452 209.548 868.592 210.016 868.64 210.496C868.688 210.968 868.712 211.484 868.712 212.044V220H866.18V217.192L866.6 217.648C866.016 218.584 865.332 219.272 864.548 219.712C863.772 220.144 862.8 220.36 861.632 220.36ZM862.208 218.056C862.864 218.056 863.424 217.94 863.888 217.708C864.352 217.476 864.72 217.192 864.992 216.856C865.272 216.52 865.46 216.204 865.556 215.908C865.708 215.54 865.792 215.12 865.808 214.648C865.832 214.168 865.844 213.78 865.844 213.484L866.732 213.748C865.86 213.884 865.112 214.004 864.488 214.108C863.864 214.212 863.328 214.312 862.88 214.408C862.432 214.496 862.036 214.596 861.692 214.708C861.356 214.828 861.072 214.968 860.84 215.128C860.608 215.288 860.428 215.472 860.3 215.68C860.18 215.888 860.12 216.132 860.12 216.412C860.12 216.732 860.2 217.016 860.36 217.264C860.52 217.504 860.752 217.696 861.056 217.84C861.368 217.984 861.752 218.056 862.208 218.056ZM876.444 220.36C875.212 220.36 874.088 220.1 873.072 219.58C872.056 219.06 871.256 218.348 870.672 217.444L872.952 215.92C873.416 216.472 873.932 216.9 874.5 217.204C875.068 217.5 875.7 217.648 876.396 217.648C877.124 217.648 877.696 217.488 878.112 217.168C878.528 216.848 878.736 216.42 878.736 215.884C878.736 215.412 878.596 215.08 878.316 214.888C878.036 214.688 877.668 214.568 877.212 214.528C876.756 214.488 876.268 214.468 875.748 214.468H874.788V212.176H875.736C876.464 212.176 877.072 212.092 877.56 211.924C878.056 211.756 878.304 211.384 878.304 210.808C878.304 210.288 878.112 209.92 877.728 209.704C877.344 209.48 876.896 209.368 876.384 209.368C875.76 209.368 875.144 209.5 874.536 209.764C873.928 210.028 873.384 210.348 872.904 210.724L871.272 208.756C871.992 208.116 872.796 207.612 873.684 207.244C874.572 206.868 875.52 206.68 876.528 206.68C877.36 206.68 878.136 206.824 878.856 207.112C879.584 207.4 880.168 207.832 880.608 208.408C881.056 208.984 881.28 209.696 881.28 210.544C881.28 211.152 881.148 211.724 880.884 212.26C880.628 212.796 880.216 213.304 879.648 213.784L879.612 212.848C880.052 213.032 880.424 213.288 880.728 213.616C881.04 213.944 881.276 214.328 881.436 214.768C881.604 215.208 881.688 215.676 881.688 216.172C881.688 217.076 881.448 217.84 880.968 218.464C880.488 219.088 879.848 219.56 879.048 219.88C878.256 220.2 877.388 220.36 876.444 220.36ZM890.556 220.36C889.292 220.36 888.232 220.06 887.376 219.46C886.52 218.86 885.876 218.044 885.444 217.012C885.012 215.972 884.796 214.808 884.796 213.52C884.796 212.216 885.012 211.048 885.444 210.016C885.876 208.984 886.508 208.172 887.34 207.58C888.18 206.98 889.216 206.68 890.448 206.68C891.672 206.68 892.732 206.98 893.628 207.58C894.532 208.172 895.232 208.984 895.728 210.016C896.224 211.04 896.472 212.208 896.472 213.52C896.472 214.816 896.228 215.98 895.74 217.012C895.252 218.044 894.564 218.86 893.676 219.46C892.788 220.06 891.748 220.36 890.556 220.36ZM884.304 225.76V207.04H886.86V216.136H887.22V225.76H884.304ZM890.112 217.768C890.864 217.768 891.484 217.58 891.972 217.204C892.46 216.828 892.82 216.32 893.052 215.68C893.292 215.032 893.412 214.312 893.412 213.52C893.412 212.736 893.292 212.024 893.052 211.384C892.812 210.736 892.44 210.224 891.936 209.848C891.432 209.464 890.792 209.272 890.016 209.272C889.28 209.272 888.68 209.452 888.216 209.812C887.752 210.164 887.408 210.66 887.184 211.3C886.968 211.932 886.86 212.672 886.86 213.52C886.86 214.36 886.968 215.1 887.184 215.74C887.408 216.38 887.756 216.88 888.228 217.24C888.708 217.592 889.336 217.768 890.112 217.768ZM902.742 220.36C901.806 220.36 901.014 220.184 900.366 219.832C899.718 219.472 899.226 218.996 898.89 218.404C898.562 217.812 898.398 217.16 898.398 216.448C898.398 215.824 898.502 215.264 898.71 214.768C898.918 214.264 899.238 213.832 899.67 213.472C900.102 213.104 900.662 212.804 901.35 212.572C901.87 212.404 902.478 212.252 903.174 212.116C903.878 211.98 904.638 211.856 905.454 211.744C906.278 211.624 907.138 211.496 908.034 211.36L907.002 211.948C907.01 211.052 906.81 210.392 906.402 209.968C905.994 209.544 905.306 209.332 904.338 209.332C903.754 209.332 903.19 209.468 902.646 209.74C902.102 210.012 901.722 210.48 901.506 211.144L898.866 210.316C899.186 209.22 899.794 208.34 900.69 207.676C901.594 207.012 902.81 206.68 904.338 206.68C905.49 206.68 906.502 206.868 907.374 207.244C908.254 207.62 908.906 208.236 909.33 209.092C909.562 209.548 909.702 210.016 909.75 210.496C909.798 210.968 909.822 211.484 909.822 212.044V220H907.29V217.192L907.71 217.648C907.126 218.584 906.442 219.272 905.658 219.712C904.882 220.144 903.91 220.36 902.742 220.36ZM903.318 218.056C903.974 218.056 904.534 217.94 904.998 217.708C905.462 217.476 905.83 217.192 906.102 216.856C906.382 216.52 906.57 216.204 906.666 215.908C906.818 215.54 906.902 215.12 906.918 214.648C906.942 214.168 906.954 213.78 906.954 213.484L907.842 213.748C906.97 213.884 906.222 214.004 905.598 214.108C904.974 214.212 904.438 214.312 903.99 214.408C903.542 214.496 903.146 214.596 902.802 214.708C902.466 214.828 902.182 214.968 901.95 215.128C901.718 215.288 901.538 215.472 901.41 215.68C901.29 215.888 901.23 216.132 901.23 216.412C901.23 216.732 901.31 217.016 901.47 217.264C901.63 217.504 901.862 217.696 902.166 217.84C902.478 217.984 902.862 218.056 903.318 218.056ZM918.334 220.384C917.102 220.368 916.054 220.092 915.19 219.556C914.326 219.02 913.65 218.264 913.162 217.288C912.674 216.312 912.378 215.16 912.274 213.832C912.226 213.152 912.222 212.392 912.262 211.552C912.302 210.712 912.39 209.892 912.526 209.092C912.662 208.292 912.85 207.612 913.09 207.052C913.338 206.492 913.662 205.976 914.062 205.504C914.462 205.024 914.894 204.624 915.358 204.304C915.886 203.936 916.458 203.652 917.074 203.452C917.698 203.252 918.35 203.1 919.03 202.996C919.71 202.884 920.41 202.784 921.13 202.696C921.85 202.608 922.562 202.496 923.266 202.36L923.53 204.916C923.082 205.028 922.562 205.116 921.97 205.18C921.386 205.236 920.778 205.3 920.146 205.372C919.522 205.444 918.926 205.548 918.358 205.684C917.79 205.82 917.298 206.02 916.882 206.284C916.306 206.636 915.866 207.14 915.562 207.796C915.258 208.452 915.078 209.144 915.022 209.872C915.518 209.136 916.134 208.62 916.87 208.324C917.614 208.02 918.366 207.868 919.126 207.868C920.278 207.868 921.266 208.14 922.09 208.684C922.922 209.228 923.558 209.968 923.998 210.904C924.446 211.832 924.67 212.868 924.67 214.012C924.67 215.292 924.402 216.412 923.866 217.372C923.33 218.332 922.586 219.076 921.634 219.604C920.682 220.132 919.582 220.392 918.334 220.384ZM918.478 217.672C919.518 217.672 920.302 217.352 920.83 216.712C921.366 216.064 921.634 215.204 921.634 214.132C921.634 213.036 921.358 212.172 920.806 211.54C920.262 210.908 919.486 210.592 918.478 210.592C917.454 210.592 916.674 210.908 916.138 211.54C915.602 212.172 915.334 213.036 915.334 214.132C915.334 215.252 915.606 216.124 916.15 216.748C916.694 217.364 917.47 217.672 918.478 217.672ZM933.037 220.36C931.741 220.36 930.609 220.068 929.641 219.484C928.673 218.9 927.921 218.096 927.385 217.072C926.857 216.04 926.593 214.856 926.593 213.52C926.593 212.16 926.865 210.968 927.409 209.944C927.953 208.92 928.709 208.12 929.677 207.544C930.645 206.968 931.765 206.68 933.037 206.68C934.341 206.68 935.477 206.972 936.445 207.556C937.413 208.14 938.165 208.948 938.701 209.98C939.237 211.004 939.505 212.184 939.505 213.52C939.505 214.864 939.233 216.052 938.689 217.084C938.153 218.108 937.401 218.912 936.433 219.496C935.465 220.072 934.333 220.36 933.037 220.36ZM933.037 217.648C934.189 217.648 935.045 217.264 935.605 216.496C936.165 215.728 936.445 214.736 936.445 213.52C936.445 212.264 936.161 211.264 935.593 210.52C935.025 209.768 934.173 209.392 933.037 209.392C932.261 209.392 931.621 209.568 931.117 209.92C930.621 210.264 930.253 210.748 930.013 211.372C929.773 211.988 929.653 212.704 929.653 213.52C929.653 214.776 929.937 215.78 930.505 216.532C931.081 217.276 931.925 217.648 933.037 217.648ZM945.143 220V209.608H940.811V207.04H952.367V209.608H948.035V220H945.143ZM954.617 220L954.641 207.04H957.569V213.28L962.309 207.04H965.921L960.893 213.52L966.353 220H962.525L957.569 213.76V220H954.617ZM971.179 220.36C970.243 220.36 969.451 220.184 968.803 219.832C968.155 219.472 967.663 218.996 967.327 218.404C966.999 217.812 966.835 217.16 966.835 216.448C966.835 215.824 966.939 215.264 967.147 214.768C967.355 214.264 967.675 213.832 968.107 213.472C968.539 213.104 969.099 212.804 969.787 212.572C970.307 212.404 970.915 212.252 971.611 212.116C972.315 211.98 973.075 211.856 973.891 211.744C974.715 211.624 975.575 211.496 976.471 211.36L975.439 211.948C975.447 211.052 975.247 210.392 974.839 209.968C974.431 209.544 973.743 209.332 972.775 209.332C972.191 209.332 971.627 209.468 971.083 209.74C970.539 210.012 970.159 210.48 969.943 211.144L967.303 210.316C967.623 209.22 968.231 208.34 969.127 207.676C970.031 207.012 971.247 206.68 972.775 206.68C973.927 206.68 974.939 206.868 975.811 207.244C976.691 207.62 977.343 208.236 977.767 209.092C977.999 209.548 978.139 210.016 978.187 210.496C978.235 210.968 978.259 211.484 978.259 212.044V220H975.727V217.192L976.147 217.648C975.563 218.584 974.879 219.272 974.095 219.712C973.319 220.144 972.347 220.36 971.179 220.36ZM971.755 218.056C972.411 218.056 972.971 217.94 973.435 217.708C973.899 217.476 974.267 217.192 974.539 216.856C974.819 216.52 975.007 216.204 975.103 215.908C975.255 215.54 975.339 215.12 975.355 214.648C975.379 214.168 975.391 213.78 975.391 213.484L976.279 213.748C975.407 213.884 974.659 214.004 974.035 214.108C973.411 214.212 972.875 214.312 972.427 214.408C971.979 214.496 971.583 214.596 971.239 214.708C970.903 214.828 970.619 214.968 970.387 215.128C970.155 215.288 969.975 215.472 969.847 215.68C969.727 215.888 969.667 216.132 969.667 216.412C969.667 216.732 969.747 217.016 969.907 217.264C970.067 217.504 970.299 217.696 970.603 217.84C970.915 217.984 971.299 218.056 971.755 218.056Z" fill="#32323B"/>
<rect x="754" y="110" width="72" height="71.6364" rx="35.8182" fill="#009785"/>
<path d="M797.572 152.406L796.038 152.64V135.818H800.328V155.318H794.738L782.258 138.496L783.766 138.262V155.318H779.502V135.818H785.222L797.572 152.406Z" fill="white"/>
<g clip-path="url(#clip2_22_61)">
<rect x="565.475" y="45" width="280" height="71" rx="35.5" transform="rotate(32.8131 565.475 45)" fill="#111114"/>
<path d="M598.703 119.968L596.243 118.382L602.843 108.145L589.506 114.038L587.045 112.451L596.409 97.9283L598.87 99.5149L592.269 109.752L605.607 103.859L608.067 105.446L598.703 119.968ZM606.058 125.139C604.935 124.415 604.137 123.548 603.665 122.539C603.196 121.523 603.03 120.445 603.166 119.305C603.308 118.168 603.729 117.05 604.429 115.95C605.156 114.838 606.011 113.991 606.997 113.408C607.993 112.822 609.049 112.542 610.166 112.567C611.287 112.585 612.398 112.95 613.501 113.661C614.738 114.459 615.582 115.445 616.033 116.621C616.495 117.795 616.51 119.004 616.078 120.249L613.235 119.343C613.424 118.637 613.404 117.982 613.175 117.377C612.951 116.766 612.559 116.28 612.001 115.921C611.369 115.513 610.751 115.328 610.145 115.367C609.544 115.398 608.977 115.613 608.444 116.012C607.911 116.41 607.43 116.943 607.001 117.608C606.333 118.644 606.025 119.63 606.078 120.568C606.13 121.506 606.613 122.27 607.527 122.859C608.173 123.275 608.776 123.455 609.336 123.397C609.904 123.344 610.461 123.1 611.009 122.663L613.133 124.817C612.081 125.71 610.942 126.184 609.716 126.241C608.494 126.291 607.275 125.923 606.058 125.139ZM617.364 132.429C616.241 131.705 615.444 130.838 614.971 129.829C614.503 128.813 614.337 127.735 614.472 126.595C614.615 125.459 615.036 124.34 615.736 123.24C616.462 122.128 617.318 121.281 618.303 120.698C619.299 120.112 620.356 119.832 621.472 119.857C622.593 119.875 623.705 120.24 624.808 120.951C626.045 121.749 626.889 122.736 627.339 123.911C627.801 125.085 627.816 126.294 627.385 127.539L624.542 126.634C624.731 125.927 624.711 125.272 624.482 124.667C624.257 124.056 623.866 123.571 623.308 123.211C622.676 122.803 622.057 122.619 621.452 122.657C620.851 122.688 620.284 122.903 619.751 123.302C619.218 123.701 618.737 124.233 618.307 124.898C617.64 125.934 617.332 126.921 617.384 127.858C617.436 128.796 617.919 129.56 618.834 130.15C619.479 130.566 620.082 130.745 620.643 130.688C621.21 130.635 621.768 130.39 622.316 129.953L624.439 132.108C623.388 133 622.249 133.475 621.023 133.531C619.801 133.581 618.581 133.214 617.364 132.429ZM623.127 135.716L624.441 133.679C624.79 134.009 625.1 134.199 625.372 134.251C625.648 134.295 625.922 134.225 626.194 134.038C626.466 133.852 626.779 133.574 627.133 133.202C627.627 132.673 628.165 132.044 628.749 131.317C629.339 130.593 629.95 129.807 630.583 128.958C631.223 128.114 631.868 127.246 632.52 126.352L640.538 131.522L633.515 142.414L631.095 140.854L636.648 132.241L633.189 130.01C632.873 130.426 632.517 130.891 632.118 131.405C631.725 131.912 631.323 132.424 630.914 132.941C630.504 133.458 630.106 133.943 629.718 134.397C629.341 134.849 629.006 135.228 628.713 135.534C628.051 136.221 627.429 136.7 626.845 136.971C626.267 137.246 625.682 137.283 625.089 137.081C624.491 136.886 623.837 136.431 623.127 135.716ZM641.105 147.737C640.003 147.026 639.188 146.163 638.662 145.148C638.137 144.133 637.911 143.05 637.987 141.899C638.069 140.753 638.466 139.629 639.177 138.526C639.944 137.336 640.838 136.451 641.859 135.872C642.884 135.286 643.96 135.013 645.085 135.054C646.211 135.094 647.308 135.459 648.377 136.148C649.507 136.877 650.294 137.76 650.738 138.798C651.193 139.834 651.302 140.957 651.066 142.165C650.829 143.374 650.243 144.6 649.308 145.844L646.898 144.289L647.47 143.402C648.226 142.214 648.575 141.216 648.516 140.407C648.457 139.598 647.987 138.909 647.106 138.341C646.111 137.7 645.172 137.532 644.289 137.839C643.411 138.138 642.59 138.88 641.827 140.063C641.116 141.166 640.807 142.176 640.901 143.093C640.995 144.01 641.506 144.768 642.434 145.366C643.032 145.752 643.631 145.953 644.23 145.968C644.841 145.981 645.426 145.811 645.987 145.458L647.919 147.732C646.869 148.445 645.732 148.792 644.506 148.773C643.288 148.758 642.154 148.413 641.105 147.737ZM640.625 140.245L641.808 138.409L649.301 143.241L648.118 145.076L640.625 140.245ZM646.115 153.965L648.905 149.639C649.496 150.02 650.047 150.089 650.555 149.846C651.064 149.603 651.714 149.032 652.503 148.132C652.979 147.601 653.459 147.026 653.945 146.406C654.43 145.786 654.929 145.123 655.442 144.416C655.962 143.713 656.5 142.966 657.059 142.174L665.167 147.402L659.373 156.388L660.473 157.097L657.683 161.424L655.383 159.941L656.944 157.521L649.965 153.021L648.404 155.441L646.115 153.965ZM652.162 151.739L656.953 154.828L661.518 147.748L657.958 145.452C657.677 145.843 657.387 146.241 657.087 146.647C656.791 147.047 656.492 147.444 656.19 147.839C655.888 148.235 655.593 148.611 655.305 148.968C655.029 149.323 654.763 149.647 654.508 149.939C654.07 150.456 653.68 150.861 653.338 151.155C652.997 151.449 652.605 151.643 652.162 151.739ZM665.882 163.712C664.793 163.01 664 162.151 663.503 161.136C663.005 160.12 662.809 159.037 662.914 157.886C663.029 156.732 663.449 155.594 664.173 154.472C664.91 153.329 665.784 152.474 666.796 151.908C667.809 151.342 668.877 151.08 670.003 151.12C671.129 151.161 672.226 151.526 673.295 152.215C674.391 152.922 675.188 153.783 675.685 154.798C676.182 155.813 676.376 156.9 676.267 158.058C676.163 159.209 675.749 160.346 675.025 161.469C674.296 162.598 673.424 163.449 672.407 164.022C671.402 164.592 670.334 164.86 669.204 164.826C668.079 164.786 666.971 164.414 665.882 163.712ZM667.352 161.433C668.32 162.057 669.247 162.198 670.134 161.856C671.021 161.514 671.794 160.832 672.453 159.81C673.133 158.755 673.437 157.76 673.362 156.827C673.293 155.887 672.78 155.11 671.826 154.494C671.173 154.074 670.54 153.875 669.926 153.897C669.322 153.918 668.751 154.125 668.211 154.52C667.676 154.907 667.187 155.444 666.745 156.13C666.064 157.185 665.759 158.183 665.828 159.123C665.909 160.06 666.417 160.83 667.352 161.433ZM673.715 168.334L680.738 157.442L685.69 160.635C686.046 160.865 686.366 161.1 686.649 161.339C686.933 161.579 687.166 161.801 687.348 162.004C687.773 162.497 688.042 163.099 688.155 163.809C688.272 164.513 688.077 165.259 687.57 166.045C687.271 166.509 686.95 166.845 686.607 167.052C686.268 167.252 685.913 167.375 685.541 167.421C685.366 167.441 685.196 167.446 685.032 167.435C684.867 167.425 684.712 167.4 684.565 167.363C684.801 167.572 685 167.81 685.161 168.076C685.414 168.496 685.55 168.964 685.569 169.481C685.595 170.002 685.399 170.585 684.983 171.231C684.511 171.964 683.934 172.467 683.252 172.742C682.582 173.014 681.844 173.029 681.039 172.786C680.747 172.693 680.429 172.559 680.085 172.384C679.745 172.203 679.406 172.004 679.07 171.787L673.715 168.334ZM677.385 168.045L680.108 169.801C680.25 169.892 680.413 169.978 680.598 170.06C680.784 170.141 680.959 170.202 681.124 170.241C681.422 170.31 681.697 170.268 681.947 170.116C682.205 169.967 682.411 169.772 682.567 169.53C682.78 169.201 682.865 168.884 682.822 168.581C682.791 168.275 682.683 168.015 682.498 167.8C682.398 167.66 682.269 167.534 682.112 167.424C681.966 167.31 681.843 167.221 681.742 167.156L679.07 165.433L677.385 168.045ZM680.299 163.527L682.316 164.828C682.524 164.962 682.732 165.082 682.94 165.187C683.159 165.291 683.356 165.355 683.529 165.381C683.807 165.437 684.064 165.393 684.299 165.25C684.541 165.111 684.745 164.913 684.909 164.658C685.083 164.389 685.178 164.108 685.196 163.815C685.225 163.519 685.135 163.252 684.927 163.013C684.803 162.838 684.621 162.669 684.384 162.506C684.153 162.347 684.004 162.246 683.936 162.203L681.97 160.935L680.299 163.527ZM687.853 177.879C687.066 177.371 686.496 176.794 686.142 176.147C685.793 175.494 685.637 174.827 685.676 174.147C685.721 173.472 685.936 172.835 686.322 172.237C686.66 171.712 687.051 171.298 687.495 170.994C687.943 170.683 688.446 170.493 689.004 170.425C689.566 170.35 690.199 170.401 690.903 170.579C691.431 170.72 692.025 170.921 692.683 171.184C693.349 171.451 694.055 171.759 694.801 172.107C695.559 172.453 696.351 172.811 697.178 173.182L695.992 173.117C696.484 172.369 696.674 171.706 696.56 171.128C696.447 170.551 695.984 170 695.17 169.475C694.68 169.159 694.132 168.967 693.527 168.901C692.923 168.835 692.35 169.022 691.808 169.463L690.038 167.337C690.901 166.589 691.889 166.179 693.002 166.106C694.121 166.038 695.323 166.418 696.608 167.246C697.576 167.871 698.324 168.577 698.853 169.365C699.389 170.158 699.603 171.029 699.496 171.979C699.444 172.488 699.308 172.957 699.088 173.386C698.873 173.809 698.613 174.256 698.31 174.726L693.998 181.413L691.87 180.041L693.392 177.681L693.498 178.292C692.5 178.762 691.552 178.969 690.655 178.914C689.769 178.857 688.835 178.512 687.853 177.879ZM689.586 176.254C690.137 176.61 690.67 176.816 691.186 176.872C691.702 176.929 692.165 176.889 692.576 176.754C692.993 176.624 693.322 176.46 693.563 176.263C693.891 176.036 694.189 175.729 694.458 175.341C694.738 174.951 694.959 174.631 695.119 174.382L695.722 175.085C694.916 174.727 694.222 174.423 693.641 174.172C693.06 173.921 692.556 173.715 692.127 173.553C691.703 173.384 691.316 173.253 690.966 173.161C690.619 173.08 690.304 173.043 690.023 173.052C689.741 173.061 689.49 173.118 689.27 173.224C689.056 173.333 688.873 173.506 688.722 173.741C688.548 174.01 688.462 174.292 688.462 174.587C688.466 174.876 688.557 175.163 688.734 175.449C688.919 175.739 689.202 176.007 689.586 176.254ZM696.604 183.093L703.627 172.201L706.057 173.768L703.287 178.064L708.179 181.218L710.949 176.922L713.379 178.489L706.356 189.381L703.926 187.814L706.709 183.497L701.818 180.343L699.034 184.66L696.604 183.093ZM725.634 186.391L718.611 197.283L716.282 195.781L720.866 188.67L711.098 192.438L709.151 191.183L716.174 180.291L718.504 181.793L714.037 188.722L723.708 185.149L725.634 186.391ZM727.958 203.31L730.299 199.679L728.353 198.424C728.104 198.263 727.796 198.055 727.428 197.799C727.067 197.547 726.742 197.29 726.454 197.028C725.714 196.332 725.254 195.517 725.075 194.583C724.901 193.642 725.137 192.671 725.783 191.669C726.416 190.688 727.188 190.067 728.098 189.807C729.008 189.546 729.938 189.603 730.887 189.977C731.284 190.128 731.67 190.32 732.044 190.552C732.429 190.781 732.746 190.976 732.995 191.136L737.412 193.985L730.389 204.877L727.958 203.31ZM720.838 198.719L726.126 196.231L728.657 197.863L723.39 200.364L720.838 198.719ZM729.33 196.355L731.529 197.773L733.752 194.324L731.554 192.906C731.426 192.824 731.267 192.731 731.077 192.627C730.887 192.523 730.686 192.437 730.474 192.367C730.24 192.301 729.988 192.286 729.718 192.322C729.447 192.357 729.184 192.448 728.926 192.597C728.669 192.745 728.449 192.96 728.267 193.242C727.994 193.666 727.887 194.097 727.947 194.536C728.018 194.972 728.188 195.343 728.457 195.649C728.592 195.794 728.74 195.927 728.899 196.049C729.065 196.175 729.209 196.277 729.33 196.355Z" fill="white"/>
</g>
</g>
<defs>
<clipPath id="clip0_22_61">
<rect width="1217" height="246" fill="white"/>
</clipPath>
<clipPath id="clip1_22_61">
<rect x="302" y="121.095" width="236" height="71" rx="35.5" transform="rotate(-14.2508 302 121.095)" fill="white"/>
</clipPath>
<clipPath id="clip2_22_61">
<rect x="565.475" y="45" width="280" height="71" rx="35.5" transform="rotate(32.8131 565.475 45)" fill="white"/>
</clipPath>
</defs>
</svg>
