<svg width="343" height="112" viewBox="0 0 343 112" fill="none" xmlns="http://www.w3.org/2000/svg">
<g clip-path="url(#clip0_51_322)">
<g clip-path="url(#clip1_51_322)">
<rect x="14.335" y="37" width="89.2602" height="32.3008" rx="16.1504" transform="rotate(39.0167 14.335 37)" fill="#7A62DB"/>
<path d="M19.5246 69.4711L21.1274 67.493C21.3255 67.6535 21.5312 67.7381 21.7444 67.7469C21.9577 67.7556 22.175 67.7043 22.3964 67.5931C22.6206 67.4841 22.8494 67.3319 23.0827 67.1366C23.3183 66.9384 23.5555 66.718 23.7942 66.4755C24.1074 66.1526 24.4105 65.8334 24.7038 65.5178C24.9993 65.1994 25.3025 64.8685 25.6135 64.5252C25.9297 64.1813 26.2727 63.81 26.6427 63.4112L30.6217 66.6494L26.4462 71.8027L26.9046 72.1741L25.3019 74.1522L24.2831 73.3268L25.1086 72.308L21.3731 69.2813L20.5476 70.3L19.5246 69.4711ZM22.7192 68.7828L25.4232 70.9738L28.8214 66.7798L26.7992 65.1273C26.5387 65.4084 26.297 65.6719 26.0742 65.918C25.8565 66.1635 25.6311 66.4098 25.398 66.657C25.1678 66.9064 24.911 67.1741 24.6277 67.4602C24.3517 67.7429 24.1142 67.9724 23.9152 68.1486C23.7189 68.3271 23.5289 68.4662 23.3451 68.5657C23.1637 68.6624 22.955 68.7348 22.7192 68.7828ZM34.7486 72.5247L31.034 77.1092L30.0534 76.3147L32.4783 73.322L27.8716 74.5468L27.0523 73.883L30.7669 69.2985L31.7475 70.093L29.3846 73.0092L33.9379 71.8678L34.7486 72.5247ZM33.7528 79.5231C33.317 79.17 32.9939 78.7558 32.7835 78.2807C32.5732 77.8055 32.4943 77.3244 32.5468 76.8372L33.7901 76.9516C33.7961 77.2799 33.8559 77.5792 33.9697 77.8495C34.0858 78.117 34.2669 78.3505 34.5131 78.55C34.7706 78.7586 35.0188 78.866 35.2577 78.872C35.4966 78.8781 35.6928 78.7863 35.8465 78.5967C35.9818 78.4297 36.0274 78.2722 35.9834 78.124C35.9417 77.973 35.8459 77.8251 35.696 77.6802C35.5462 77.5354 35.3793 77.3884 35.1954 77.2394L34.8558 76.9642L35.5127 76.1534L35.8481 76.4252C36.1056 76.6338 36.3447 76.7784 36.5655 76.8588C36.7891 76.9416 36.9835 76.881 37.1486 76.6773C37.2976 76.4933 37.3352 76.3081 37.2612 76.1217C37.1896 75.9324 37.0632 75.7643 36.8821 75.6176C36.6614 75.4387 36.4057 75.3089 36.1149 75.228C35.8242 75.1471 35.54 75.1044 35.2624 75.0998L35.2492 73.9359C35.6874 73.9159 36.1162 73.968 36.5358 74.0924C36.9577 74.2139 37.3469 74.4191 37.7035 74.708C37.9978 74.9465 38.231 75.2198 38.4032 75.5281C38.5782 75.8386 38.6609 76.1588 38.6515 76.4887C38.6449 76.8209 38.52 77.1369 38.277 77.4369C38.1027 77.652 37.892 77.8165 37.645 77.9304C37.4008 78.0466 37.1095 78.1082 36.771 78.1152L37.0265 77.7738C37.1294 77.965 37.1877 78.1622 37.2012 78.3654C37.2175 78.5708 37.191 78.7743 37.1214 78.9758C37.0548 79.1796 36.9503 79.3692 36.8082 79.5447C36.5491 79.8645 36.2452 80.0659 35.8965 80.1491C35.5479 80.2322 35.1862 80.2158 34.8115 80.0997C34.4396 79.9858 34.0867 79.7937 33.7528 79.5231ZM37.8237 82.8216C37.4926 82.5533 37.2629 82.2641 37.1345 81.9538C37.0085 81.6407 36.9709 81.3313 37.0217 81.0256C37.0754 80.7222 37.2042 80.4445 37.4083 80.1927C37.5872 79.9719 37.7845 79.8037 38.0002 79.6878C38.2182 79.5692 38.4553 79.5081 38.7113 79.5045C38.9695 79.4982 39.2536 79.5526 39.5635 79.6677C39.7956 79.7573 40.0542 79.8778 40.3394 80.0292C40.6274 80.1829 40.9318 80.3568 41.2526 80.5511C41.5784 80.7448 41.9193 80.9461 42.2753 81.1548L41.7417 81.067C42.0013 80.7523 42.1197 80.4615 42.0969 80.1946C42.0742 79.9277 41.8915 79.6555 41.5491 79.378C41.3425 79.2106 41.1041 79.0971 40.8337 79.0374C40.5633 78.9777 40.2947 79.0343 40.028 79.2073L39.3314 78.1577C39.7588 77.8617 40.2261 77.7247 40.7333 77.7466C41.2434 77.7708 41.7687 78.0019 42.3092 78.4399C42.7168 78.7701 43.0209 79.1267 43.2215 79.5096C43.4251 79.8948 43.4791 80.2996 43.3838 80.7239C43.3351 80.9517 43.2505 81.1574 43.1299 81.341C43.0116 81.5217 42.8722 81.7111 42.7117 81.9092L40.4313 84.7235L39.5357 83.9978L40.3405 83.0045L40.3584 83.2862C39.8835 83.4499 39.4444 83.4972 39.0409 83.4282C38.6426 83.3586 38.2368 83.1564 37.8237 82.8216ZM38.6878 82.1717C38.9199 82.3597 39.1512 82.4792 39.3818 82.5301C39.6125 82.581 39.824 82.586 40.0166 82.5452C40.2119 82.5066 40.369 82.4487 40.4878 82.3715C40.647 82.2849 40.7971 82.1604 40.9381 81.998C41.0842 81.8351 41.1996 81.7013 41.2844 81.5965L41.5229 81.9445C41.1755 81.7426 40.8765 81.5707 40.6259 81.4286C40.3754 81.2866 40.1571 81.1683 39.9711 81.0739C39.7874 80.9766 39.6187 80.8984 39.4649 80.8395C39.3116 80.7856 39.1711 80.7537 39.0431 80.7438C38.9152 80.7339 38.7988 80.7474 38.6939 80.7843C38.5918 80.8235 38.5007 80.8926 38.4204 80.9917C38.3287 81.1049 38.2756 81.2283 38.2611 81.3618C38.2489 81.4926 38.276 81.627 38.3422 81.7651C38.4113 81.9054 38.5265 82.041 38.6878 82.1717ZM47.7889 82.233C47.554 82.0426 47.3859 81.8104 47.2847 81.5361C47.1834 81.2619 47.1528 80.9815 47.1927 80.6951C47.2349 80.4058 47.3523 80.1423 47.5449 79.9046L48.3429 80.5512C48.2328 80.6871 48.1855 80.8409 48.2009 81.0128C48.2215 81.1842 48.2997 81.3249 48.4355 81.4349C48.5714 81.545 48.7238 81.5912 48.8929 81.5734C49.067 81.5552 49.2092 81.4781 49.3192 81.3423L50.1173 81.9889C49.9246 82.2266 49.6912 82.3961 49.417 82.4974C49.145 82.5958 48.8644 82.6239 48.5751 82.5817C48.2859 82.5395 48.0238 82.4233 47.7889 82.233ZM49.2243 84.2539L45.5097 88.8383L44.5291 88.0438L46.9539 85.0512L42.3472 86.2759L41.528 85.6121L45.2426 81.0277L46.2232 81.8222L43.8602 84.7384L48.4135 83.5969L49.2243 84.2539ZM46.6931 89.7973L50.4077 85.2128L51.4308 86.0417L49.9655 87.85L52.0243 89.5182L53.4895 87.7099L54.5125 88.5388L50.7979 93.1232L49.7749 92.2943L51.247 90.4775L49.1882 88.8094L47.7161 90.6262L46.6931 89.7973Z" fill="white"/>
</g>
<rect x="77" y="80" width="107.26" height="32.3008" rx="16.1504" fill="#12B396"/>
<path d="M101.348 100.65L103.829 92.7831H105.757L108.238 100.65H106.883L104.632 93.5917H104.927L102.703 100.65H101.348ZM102.731 98.9458V97.7165H106.861V98.9458H102.731ZM109.215 100.65V94.7499H110.531V97.0773H113.181V94.7499H114.498V100.65H113.181V98.312H110.531V100.65H109.215ZM117.673 100.814C117.247 100.814 116.886 100.734 116.591 100.574C116.296 100.41 116.072 100.193 115.919 99.9238C115.77 99.6542 115.695 99.3574 115.695 99.0332C115.695 98.7491 115.742 98.4942 115.837 98.2683C115.932 98.0389 116.077 97.8422 116.274 97.6783C116.471 97.5107 116.726 97.3742 117.039 97.2685C117.276 97.192 117.553 97.1228 117.869 97.0609C118.19 96.999 118.536 96.9426 118.907 96.8916C119.283 96.8369 119.674 96.7787 120.082 96.7167L119.612 96.9844C119.616 96.5765 119.525 96.276 119.339 96.083C119.153 95.8899 118.84 95.7934 118.399 95.7934C118.134 95.7934 117.877 95.8553 117.629 95.9792C117.381 96.103 117.208 96.3161 117.11 96.6184L115.908 96.2414C116.054 95.7424 116.331 95.3418 116.739 95.0395C117.15 94.7372 117.704 94.586 118.399 94.586C118.924 94.586 119.385 94.6716 119.782 94.8428C120.182 95.014 120.479 95.2944 120.672 95.6841C120.778 95.8918 120.842 96.1048 120.863 96.3234C120.885 96.5383 120.896 96.7732 120.896 97.0281V100.65H119.743V99.372L119.935 99.5796C119.669 100.006 119.357 100.319 119 100.519C118.647 100.716 118.205 100.814 117.673 100.814ZM117.935 99.7653C118.234 99.7653 118.489 99.7125 118.7 99.6069C118.911 99.5013 119.079 99.372 119.203 99.219C119.33 99.066 119.416 98.9221 119.459 98.7874C119.528 98.6198 119.567 98.4286 119.574 98.2137C119.585 97.9952 119.59 97.8185 119.59 97.6838L119.995 97.804C119.598 97.8659 119.257 97.9205 118.973 97.9679C118.689 98.0152 118.445 98.0607 118.241 98.1044C118.037 98.1445 117.857 98.19 117.7 98.241C117.547 98.2957 117.418 98.3594 117.312 98.4322C117.207 98.5051 117.125 98.5889 117.066 98.6836C117.012 98.7783 116.984 98.8893 116.984 99.0168C116.984 99.1625 117.021 99.2918 117.094 99.4047C117.166 99.514 117.272 99.6014 117.411 99.667C117.553 99.7325 117.727 99.7653 117.935 99.7653ZM121.772 100.65V99.5468C121.987 99.5868 122.153 99.5832 122.269 99.5359C122.386 99.4849 122.473 99.3902 122.532 99.2518C122.59 99.1134 122.641 98.9294 122.685 98.7C122.743 98.3758 122.794 98.0025 122.838 97.58C122.885 97.1574 122.925 96.7058 122.958 96.225C122.994 95.7442 123.027 95.2525 123.056 94.7499H127.4V100.65H126.088V95.9846H124.214C124.196 96.2214 124.174 96.4873 124.149 96.7823C124.123 97.0737 124.096 97.3687 124.067 97.6674C124.038 97.966 124.005 98.2501 123.968 98.5197C123.936 98.7855 123.901 99.0132 123.865 99.2026C123.781 99.6287 123.661 99.9656 123.504 100.213C123.351 100.461 123.136 100.619 122.859 100.689C122.583 100.761 122.22 100.749 121.772 100.65ZM134.048 94.7499V100.65H132.786V96.7987L129.978 100.65H128.923V94.7499H130.186V98.5033L133.005 94.7499H134.048ZM137.063 100.65V95.9191H135.091V94.7499H140.352V95.9191H138.38V100.65H137.063ZM146.501 94.7499V100.65H145.239V96.7987L142.431 100.65H141.376V94.7499H142.638V98.5033L145.457 94.7499H146.501ZM148.024 100.65L148.035 94.7499H149.368V97.5909L151.526 94.7499H153.171L150.881 97.7001L153.367 100.65H151.624L149.368 97.8094V100.65H148.024ZM155.565 100.814C155.138 100.814 154.778 100.734 154.483 100.574C154.188 100.41 153.964 100.193 153.811 99.9238C153.661 99.6542 153.587 99.3574 153.587 99.0332C153.587 98.7491 153.634 98.4942 153.729 98.2683C153.824 98.0389 153.969 97.8422 154.166 97.6783C154.363 97.5107 154.618 97.3742 154.931 97.2685C155.168 97.192 155.444 97.1228 155.761 97.0609C156.082 96.999 156.428 96.9426 156.799 96.8916C157.174 96.8369 157.566 96.7787 157.974 96.7167L157.504 96.9844C157.508 96.5765 157.417 96.276 157.231 96.083C157.045 95.8899 156.732 95.7934 156.291 95.7934C156.025 95.7934 155.768 95.8553 155.521 95.9792C155.273 96.103 155.1 96.3161 155.002 96.6184L153.8 96.2414C153.946 95.7424 154.222 95.3418 154.63 95.0395C155.042 94.7372 155.595 94.586 156.291 94.586C156.816 94.586 157.276 94.6716 157.673 94.8428C158.074 95.014 158.371 95.2944 158.564 95.6841C158.67 95.8918 158.733 96.1048 158.755 96.3234C158.777 96.5383 158.788 96.7732 158.788 97.0281V100.65H157.635V99.372L157.826 99.5796C157.56 100.006 157.249 100.319 156.892 100.519C156.539 100.716 156.096 100.814 155.565 100.814ZM155.827 99.7653C156.125 99.7653 156.38 99.7125 156.592 99.6069C156.803 99.5013 156.97 99.372 157.094 99.219C157.222 99.066 157.307 98.9221 157.351 98.7874C157.42 98.6198 157.459 98.4286 157.466 98.2137C157.477 97.9952 157.482 97.8185 157.482 97.6838L157.886 97.804C157.489 97.8659 157.149 97.9205 156.865 97.9679C156.581 98.0152 156.337 98.0607 156.133 98.1044C155.929 98.1445 155.748 98.19 155.592 98.241C155.439 98.2957 155.31 98.3594 155.204 98.4322C155.098 98.5051 155.016 98.5889 154.958 98.6836C154.903 98.7783 154.876 98.8893 154.876 99.0168C154.876 99.1625 154.913 99.2918 154.985 99.4047C155.058 99.514 155.164 99.6014 155.302 99.667C155.444 99.7325 155.619 99.7653 155.827 99.7653Z" fill="white"/>
<g clip-path="url(#clip2_51_322)">
<rect x="54" y="60.8298" width="107.26" height="32.3008" rx="16.1504" transform="rotate(-29.5076 54 60.8298)" fill="#DA65DE"/>
<path d="M85.8369 66.5399L81.9619 59.693L82.9937 59.1091L88.1063 62.6189L87.7294 56.4289L88.7612 55.845L92.6362 62.6918L91.5664 63.2973L89.0826 58.9087L89.4648 64.4867L89.0083 64.745L84.4277 61.5431L86.9115 65.9317L85.8369 66.5399ZM95.4886 61.2658C95.1178 61.4757 94.7645 61.5836 94.4288 61.5894C94.0913 61.5921 93.7896 61.5138 93.5237 61.3546C93.261 61.1936 93.0498 60.972 92.8902 60.6899C92.7502 60.4427 92.6659 60.1974 92.6371 59.9543C92.6065 59.7079 92.6364 59.465 92.7268 59.2255C92.8155 58.9828 92.9701 58.7383 93.1907 58.4921C93.359 58.309 93.5658 58.1124 93.8111 57.9024C94.0596 57.6907 94.3329 57.4711 94.6311 57.2438C94.9307 57.0114 95.2427 56.7679 95.5673 56.5131L95.2902 56.9775C95.0925 56.6206 94.8652 56.404 94.6085 56.3275C94.3517 56.251 94.0316 56.3212 93.648 56.5383C93.4166 56.6693 93.2237 56.8496 93.0691 57.0794C92.9146 57.3092 92.8689 57.5798 92.9322 57.8913L91.7005 58.1553C91.5815 57.6492 91.6251 57.1642 91.8312 56.7002C92.0405 56.2344 92.4479 55.8302 93.0533 55.4875C93.5098 55.2292 93.9529 55.0767 94.3828 55.0302C94.8158 54.9818 95.2122 55.0797 95.5722 55.3238C95.7664 55.4524 95.9268 55.6065 96.0535 55.7859C96.1783 55.9622 96.3035 56.1612 96.4291 56.3831L98.2132 59.5355L97.21 60.1033L96.5803 58.9907L96.8489 59.0772C96.8274 59.579 96.7107 60.005 96.4987 60.3552C96.2881 60.7004 95.9514 61.0039 95.4886 61.2658ZM95.2002 60.2238C95.4601 60.0766 95.656 59.9051 95.7878 59.7091C95.9197 59.5132 96.0018 59.3181 96.0342 59.124C96.0698 58.9281 96.0734 58.7607 96.0451 58.6219C96.0228 58.442 95.9619 58.2567 95.8624 58.0661C95.7643 57.8705 95.682 57.7141 95.6156 57.5968L96.0267 57.5023C95.7117 57.7517 95.4422 57.967 95.2183 58.1482C94.9944 58.3293 94.8044 58.4891 94.6484 58.6276C94.4906 58.7629 94.3562 58.8914 94.245 59.0129C94.1387 59.1358 94.0576 59.2549 94.0016 59.3704C93.9455 59.4858 93.9155 59.5991 93.9114 59.7102C93.9105 59.8195 93.9414 59.9296 94.0042 60.0406C94.076 60.1674 94.1714 60.262 94.2904 60.3243C94.4076 60.3836 94.5426 60.4076 94.6953 60.3965C94.8512 60.3836 95.0195 60.326 95.2002 60.2238ZM102 57.581C101.499 57.8644 101.011 57.9833 100.538 57.9375C100.064 57.8917 99.6258 57.7128 99.2232 57.4008C98.8188 57.0856 98.4722 56.6728 98.1834 56.1624C97.891 55.6458 97.7147 55.1345 97.6544 54.6287C97.5942 54.123 97.6625 53.6595 97.8594 53.2384C98.0577 52.8123 98.4009 52.4611 98.8891 52.1848C99.374 51.9103 99.8613 51.7915 100.351 51.8283C100.842 51.8602 101.301 52.0249 101.729 52.3226C102.155 52.6171 102.516 53.0243 102.81 53.5442C103.1 54.0577 103.265 54.5736 103.303 55.0919C103.341 55.6103 103.251 56.0879 103.034 56.5247C102.817 56.9616 102.472 57.3137 102 57.581ZM100.733 61.1226L96.5354 53.7052L97.5481 53.132L99.5879 56.7361L99.7305 56.6554L101.889 60.4687L100.733 61.1226ZM101.242 56.6535C101.54 56.4849 101.744 56.2714 101.853 56.013C101.962 55.7546 101.991 55.4725 101.939 55.1669C101.889 54.8564 101.775 54.5442 101.597 54.2303C101.422 53.9197 101.214 53.6645 100.976 53.4647C100.735 53.2618 100.473 53.1423 100.189 53.1064C99.9032 53.0672 99.6066 53.1347 99.2991 53.3087C99.0075 53.4737 98.8101 53.6796 98.707 53.9263C98.6021 54.1698 98.577 54.4435 98.6318 54.7473C98.6879 55.0462 98.8111 55.3636 99.0012 55.6996C99.1896 56.0324 99.3983 56.3014 99.6274 56.5066C99.8597 56.7099 100.11 56.83 100.377 56.8668C100.647 56.8986 100.935 56.8276 101.242 56.6535ZM105.301 55.524L102.405 50.3834L103.565 49.7268L104.964 52.1993L105.443 48.6639L106.874 47.8539L106.335 51.549L109.952 52.8922L108.435 53.7506L105.072 52.3895L106.471 54.862L105.301 55.524ZM112.657 51.5492C112.138 51.8434 111.617 51.9892 111.097 51.9866C110.577 51.984 110.092 51.8457 109.644 51.5719C109.2 51.2963 108.83 50.8986 108.536 50.3787C108.219 49.8177 108.051 49.2701 108.033 48.736C108.014 48.1988 108.131 47.7075 108.386 47.2622C108.64 46.8169 109.019 46.4516 109.523 46.1664C110.056 45.865 110.578 45.7346 111.091 45.7751C111.605 45.8107 112.08 46.004 112.518 46.355C112.955 46.706 113.325 47.2016 113.629 47.8416L112.493 48.4848L112.256 48.0664C111.937 47.5103 111.608 47.1586 111.269 47.0112C110.931 46.8639 110.554 46.9077 110.139 47.1428C109.669 47.4083 109.403 47.7514 109.34 48.1722C109.275 48.5898 109.4 49.0776 109.716 49.6355C110.01 50.1553 110.352 50.4933 110.742 50.6494C111.132 50.8055 111.545 50.7598 111.983 50.5123C112.265 50.3526 112.472 50.1535 112.605 49.9151C112.74 49.6717 112.795 49.3997 112.771 49.0992L114.097 48.8011C114.162 49.3751 114.061 49.9071 113.795 50.3971C113.531 50.8853 113.152 51.2693 112.657 51.5492ZM109.535 50.1585L109.045 49.2932L112.578 47.2938L113.068 48.1592L109.535 50.1585ZM117.093 48.8503L114.763 44.7327L113.047 45.7041L112.471 44.6866L117.05 42.0952L117.625 43.1128L115.909 44.0842L118.239 48.2018L117.093 48.8503ZM122.401 39.0666L125.307 44.2017L124.209 44.8233L122.312 41.4712L121.765 46.2065L120.847 46.7258L117.941 41.5907L119.039 40.9691L120.888 44.2356L121.493 39.5805L122.401 39.0666ZM126.633 43.4515L123.727 38.3164L124.873 37.6678L126.019 39.6934L128.325 38.3882L127.179 36.3627L128.324 35.7142L131.231 40.8493L130.085 41.4979L128.933 39.4628L126.627 40.7679L127.779 42.803L126.633 43.4515ZM132.558 40.0982L129.652 34.9631L133.313 32.891L133.921 33.9656L131.406 35.3891L133.704 39.4497L132.558 40.0982Z" fill="white"/>
</g>
<g clip-path="url(#clip3_51_322)">
<rect x="262.078" y="100.642" width="112.26" height="32.3008" rx="16.1504" transform="rotate(-57.7074 262.078 100.642)" fill="#D6CCFF"/>
<path d="M292.834 90.6302L286.184 86.4271L287.92 83.6792C287.961 83.6145 288.017 83.5333 288.087 83.4356C288.154 83.336 288.223 83.2479 288.293 83.1714C288.595 82.8235 288.923 82.5871 289.277 82.4623C289.634 82.3343 290.001 82.3057 290.379 82.3763C290.755 82.4419 291.127 82.5905 291.493 82.822C291.856 83.0516 292.15 83.3234 292.374 83.6372C292.595 83.9491 292.724 84.2936 292.761 84.6706C292.801 85.0445 292.729 85.4409 292.546 85.8596C292.504 85.9536 292.453 86.0549 292.393 86.1635C292.335 86.269 292.287 86.3525 292.248 86.4141L291.214 88.049L293.538 89.5171L292.834 90.6302ZM290.175 87.3923L291.179 85.8035C291.218 85.742 291.259 85.6707 291.302 85.5899C291.344 85.509 291.376 85.4304 291.399 85.3541C291.469 85.1402 291.479 84.9439 291.428 84.7653C291.38 84.5835 291.295 84.4244 291.174 84.2879C291.056 84.1484 290.926 84.0338 290.784 83.9443C290.642 83.8548 290.483 83.7864 290.306 83.7392C290.128 83.687 289.946 83.6778 289.761 83.7116C289.578 83.7423 289.405 83.8355 289.242 83.991C289.183 84.044 289.127 84.108 289.075 84.183C289.021 84.2561 288.974 84.3234 288.935 84.385L287.931 85.9737L290.175 87.3923ZM297.582 83.4237C297.355 83.7839 297.094 84.046 296.801 84.2097C296.505 84.3716 296.202 84.4451 295.893 84.4305C295.585 84.4127 295.294 84.3172 295.02 84.144C294.78 83.9923 294.59 83.816 294.45 83.6153C294.306 83.4127 294.218 83.1845 294.184 82.9306C294.148 82.6749 294.168 82.3864 294.247 82.0652C294.308 81.8242 294.398 81.5532 294.515 81.2522C294.634 80.9482 294.771 80.6256 294.926 80.2843C295.08 79.9379 295.24 79.5758 295.406 79.1979L295.381 79.7381C295.038 79.5171 294.736 79.4335 294.473 79.4874C294.211 79.5413 293.962 79.7545 293.726 80.1271C293.584 80.3519 293.499 80.602 293.472 80.8775C293.444 81.1531 293.532 81.4131 293.735 81.6578L292.774 82.4724C292.43 82.0827 292.239 81.6346 292.202 81.1283C292.166 80.6189 292.334 80.0701 292.706 79.482C292.986 79.0387 293.304 78.6949 293.661 78.4508C294.02 78.2035 294.416 78.1024 294.848 78.1475C295.08 78.1691 295.294 78.229 295.491 78.3273C295.684 78.4237 295.888 78.5399 296.104 78.6761L299.166 80.6113L298.55 81.5858L297.469 80.9028L297.747 80.852C297.965 81.3045 298.064 81.7351 298.042 82.1438C298.02 82.5476 297.867 82.9742 297.582 83.4237ZM296.836 82.6416C296.995 82.3891 297.087 82.1454 297.11 81.9104C297.134 81.6754 297.114 81.4647 297.051 81.2783C296.99 81.0888 296.914 80.9396 296.823 80.8306C296.719 80.6826 296.578 80.5481 296.4 80.4272C296.221 80.3012 296.074 80.2022 295.961 80.1302L296.278 79.8526C296.118 80.2213 295.983 80.5384 295.871 80.8038C295.759 81.0693 295.667 81.2999 295.595 81.4957C295.52 81.6895 295.462 81.8662 295.422 82.0259C295.386 82.1844 295.371 82.3277 295.376 82.4559C295.381 82.5841 295.408 82.6982 295.457 82.798C295.508 82.8948 295.587 82.9772 295.695 83.0453C295.818 83.1232 295.947 83.1615 296.081 83.1602C296.213 83.157 296.343 83.1144 296.472 83.0324C296.604 82.9474 296.725 82.8171 296.836 82.6416ZM301.185 77.723C300.886 78.1972 300.512 78.5665 300.065 78.8311C299.618 79.0956 299.149 79.2303 298.659 79.2352L298.627 77.987C298.952 77.9427 299.243 77.8482 299.498 77.7036C299.75 77.557 299.96 77.3497 300.13 77.0819C300.307 76.8017 300.384 76.5426 300.362 76.3047C300.34 76.0667 300.226 75.8826 300.02 75.7522C299.838 75.6374 299.677 75.6105 299.535 75.6716C299.389 75.7307 299.254 75.8431 299.127 76.0089C299.001 76.1747 298.875 76.3576 298.748 76.5578L298.515 76.9272L297.633 76.3697L297.863 76.0049C298.04 75.7247 298.156 75.4703 298.21 75.2416C298.266 75.0098 298.183 74.8239 297.961 74.6838C297.761 74.5573 297.573 74.5417 297.396 74.637C297.217 74.7303 297.065 74.8755 296.94 75.0725C296.788 75.3127 296.689 75.5818 296.643 75.8801C296.597 76.1783 296.588 76.4655 296.616 76.7417L295.461 76.8911C295.39 76.4583 295.392 76.0263 295.466 75.595C295.537 75.1618 295.695 74.7512 295.941 74.3633C296.143 74.0431 296.387 73.7794 296.673 73.5724C296.961 73.3623 297.269 73.2426 297.598 73.2133C297.929 73.181 298.257 73.268 298.584 73.4742C298.818 73.6221 299.006 73.8121 299.148 74.044C299.292 74.2729 299.387 74.5551 299.434 74.8904L299.065 74.6766C299.242 74.552 299.432 74.4711 299.632 74.4339C299.834 74.3936 300.039 74.3962 300.247 74.4416C300.457 74.484 300.658 74.5655 300.849 74.6861C301.197 74.906 301.432 75.1842 301.556 75.5207C301.679 75.8572 301.705 76.2184 301.634 76.6041C301.564 76.9867 301.415 77.3597 301.185 77.723ZM304.618 72.2917C304.31 72.7782 303.937 73.1132 303.498 73.2967C303.059 73.4802 302.588 73.5296 302.086 73.4448C301.58 73.3581 301.08 73.1581 300.584 72.8448C300.082 72.5277 299.685 72.1604 299.393 71.7432C299.101 71.3259 298.942 70.8851 298.917 70.4209C298.89 69.9517 299.027 69.48 299.327 69.0059C299.624 68.5348 299.998 68.1998 300.446 68.0009C300.894 67.797 301.377 67.7251 301.895 67.7852C302.409 67.8434 302.919 68.032 303.424 68.3511C303.923 68.6664 304.312 69.0434 304.59 69.4822C304.869 69.9211 305.015 70.3843 305.03 70.872C305.045 71.3597 304.908 71.833 304.618 72.2917ZM305.175 76.0114L297.971 71.458L298.592 70.4743L302.093 72.6868L302.181 72.5482L305.885 74.8891L305.175 76.0114ZM303.512 71.8321C303.695 71.5427 303.774 71.2584 303.748 70.9791C303.722 70.6998 303.614 70.4377 303.424 70.1928C303.233 69.9428 302.985 69.7215 302.68 69.5288C302.378 69.3381 302.075 69.2111 301.77 69.1478C301.463 69.0826 301.175 69.1012 300.908 69.2037C300.637 69.3043 300.408 69.5039 300.219 69.8026C300.04 70.0858 299.963 70.3605 299.989 70.6267C300.012 70.8909 300.119 71.1439 300.311 71.3858C300.501 71.6227 300.76 71.8442 301.086 72.0505C301.41 72.2548 301.721 72.3932 302.019 72.4658C302.32 72.5352 302.597 72.5229 302.851 72.4288C303.103 72.3297 303.323 72.1308 303.512 71.8321ZM307.582 67.6021C307.354 67.9623 307.094 68.2243 306.8 68.3881C306.504 68.5499 306.201 68.6235 305.892 68.6088C305.584 68.5911 305.293 68.4956 305.019 68.3224C304.779 68.1707 304.589 67.9944 304.449 67.7937C304.305 67.5911 304.217 67.3629 304.183 67.109C304.147 66.8533 304.168 66.5648 304.246 66.2435C304.307 66.0025 304.397 65.7316 304.514 65.4306C304.633 65.1266 304.77 64.8039 304.925 64.4627C305.079 64.1163 305.239 63.7542 305.405 63.3763L305.38 63.9165C305.037 63.6955 304.735 63.6119 304.472 63.6658C304.21 63.7197 303.961 63.9329 303.725 64.3055C303.583 64.5302 303.499 64.7804 303.471 65.0559C303.443 65.3314 303.531 65.5915 303.734 65.8362L302.773 66.6508C302.429 66.2611 302.238 65.813 302.201 65.3067C302.165 64.7973 302.333 64.2485 302.705 63.6604C302.985 63.2171 303.303 62.8733 303.66 62.6292C304.019 62.3819 304.415 62.2808 304.847 62.3259C305.079 62.3475 305.293 62.4074 305.49 62.5057C305.683 62.602 305.888 62.7183 306.103 62.8545L309.165 64.7897L308.549 65.7642L307.469 65.0812L307.746 65.0304C307.964 65.4829 308.063 65.9135 308.041 66.3222C308.019 66.7259 307.866 67.1526 307.582 67.6021ZM306.835 66.82C306.994 66.5675 307.086 66.3238 307.11 66.0888C307.133 65.8538 307.113 65.6431 307.05 65.4567C306.989 65.2672 306.913 65.118 306.823 65.009C306.718 64.861 306.577 64.7265 306.399 64.6056C306.22 64.4796 306.074 64.3806 305.96 64.3086L306.277 64.031C306.118 64.3997 305.982 64.7168 305.87 64.9822C305.758 65.2477 305.666 65.4783 305.594 65.6741C305.519 65.8679 305.461 66.0446 305.421 66.2043C305.385 66.3628 305.37 66.5061 305.375 66.6343C305.38 66.7625 305.407 66.8766 305.456 66.9764C305.507 67.0732 305.587 67.1556 305.694 67.2237C305.817 67.3016 305.946 67.3399 306.081 67.3386C306.212 67.3354 306.342 67.2928 306.472 67.2108C306.603 67.1258 306.724 66.9955 306.835 66.82ZM311.383 61.6071C311.077 62.0773 310.716 62.4135 310.3 62.6157C309.883 62.8178 309.428 62.8941 308.934 62.8445C308.439 62.795 307.924 62.6287 307.388 62.3457C307.114 62.1988 306.821 62.0154 306.507 61.7957C306.194 61.576 305.9 61.3427 305.625 61.0958C305.35 60.8489 305.134 60.6111 304.977 60.3825C304.822 60.1509 304.702 59.9007 304.617 59.6319C304.53 59.3612 304.481 59.0977 304.471 58.8412C304.458 58.5485 304.487 58.2593 304.56 57.9736C304.635 57.6848 304.735 57.3969 304.861 57.1099C304.983 56.8209 305.115 56.5272 305.256 56.2287C305.397 55.9302 305.527 55.6289 305.646 55.3249L306.694 55.845C306.628 56.0446 306.536 56.2662 306.416 56.5096C306.296 56.748 306.172 56.9975 306.046 57.2583C305.922 57.5159 305.817 57.7706 305.732 58.0223C305.646 58.274 305.603 58.512 305.604 58.7363C305.599 59.0436 305.686 59.3355 305.864 59.6121C306.043 59.8887 306.265 60.1262 306.532 60.3249C306.369 59.955 306.321 59.5924 306.386 59.2371C306.45 58.8768 306.574 58.5504 306.759 58.2579C307.039 57.8146 307.384 57.5005 307.794 57.3157C308.206 57.1278 308.645 57.063 309.112 57.1213C309.579 57.1746 310.032 57.3404 310.472 57.6187C310.965 57.93 311.331 58.3056 311.57 58.7454C311.809 59.1852 311.914 59.6525 311.886 60.1473C311.857 60.6421 311.69 61.1287 311.383 61.6071ZM310.375 60.892C310.628 60.4917 310.695 60.1122 310.577 59.7533C310.458 59.3894 310.192 59.0771 309.78 58.8163C309.358 58.5497 308.958 58.4458 308.581 58.5045C308.205 58.5602 307.895 58.782 307.65 59.1699C307.401 59.564 307.333 59.9411 307.445 60.3011C307.558 60.6611 307.826 60.9744 308.247 61.241C308.678 61.5134 309.08 61.6208 309.453 61.5632C309.822 61.5037 310.129 61.2799 310.375 60.892ZM314.95 55.9425C314.635 56.4412 314.247 56.8059 313.787 57.0364C313.327 57.2669 312.835 57.3608 312.31 57.318C311.785 57.2702 311.265 57.0838 310.75 56.7588C310.227 56.428 309.834 56.0334 309.573 55.575C309.311 55.1165 309.187 54.631 309.201 54.1183C309.214 53.6057 309.376 53.1046 309.685 52.615C310.003 52.1132 310.391 51.747 310.851 51.5165C311.312 51.286 311.806 51.1931 312.333 51.2378C312.858 51.2806 313.377 51.4645 313.891 51.7894C314.408 52.1163 314.799 52.51 315.064 52.9704C315.328 53.4257 315.455 53.9107 315.444 54.4253C315.43 54.938 315.266 55.4437 314.95 55.9425ZM313.907 55.2828C314.187 54.8394 314.247 54.4166 314.088 54.0143C313.928 53.6119 313.615 53.2629 313.147 52.9671C312.663 52.6616 312.209 52.5277 311.785 52.5653C311.357 52.601 311.005 52.8375 310.729 53.2747C310.54 53.5733 310.452 53.8625 310.465 54.1421C310.477 54.4166 310.574 54.676 310.756 54.9201C310.934 55.1623 311.181 55.3827 311.495 55.5811C311.978 55.8866 312.434 56.0215 312.861 55.9858C313.288 55.9451 313.636 55.7108 313.907 55.2828ZM317.756 51.1957L313.757 48.668L312.703 50.3352L311.715 49.7106L314.526 45.2631L315.514 45.8877L314.46 47.555L318.46 50.0826L317.756 51.1957ZM320.061 47.5494L315.079 44.3879L315.791 43.261L318.193 44.7788L316.944 41.4367L317.822 40.0466L319.093 43.5579L322.915 43.0326L321.984 44.5059L318.377 44.8955L320.779 46.4133L320.061 47.5494ZM324.228 41.2628C324 41.6231 323.74 41.8851 323.447 42.0488C323.15 42.2107 322.848 42.2842 322.538 42.2696C322.23 42.2518 321.94 42.1563 321.666 41.9832C321.425 41.8314 321.235 41.6551 321.095 41.4544C320.952 41.2518 320.863 41.0236 320.83 40.7697C320.793 40.514 320.814 40.2255 320.892 39.9043C320.954 39.6633 321.043 39.3923 321.16 39.0913C321.279 38.7873 321.416 38.4647 321.571 38.1234C321.726 37.7771 321.886 37.4149 322.051 37.037L322.026 37.5772C321.684 37.3562 321.381 37.2726 321.118 37.3265C320.856 37.3804 320.607 37.5937 320.372 37.9662C320.23 38.191 320.145 38.4411 320.117 38.7166C320.09 38.9922 320.177 39.2522 320.38 39.4969L319.419 40.3115C319.075 39.9218 318.885 39.4738 318.847 38.9674C318.811 38.458 318.979 37.9092 319.351 37.3212C319.631 36.8778 319.95 36.534 320.307 36.2899C320.665 36.0427 321.061 35.9416 321.494 35.9866C321.725 36.0082 321.94 36.0682 322.136 36.1664C322.329 36.2628 322.534 36.379 322.749 36.5152L325.811 38.4504L325.195 39.4249L324.115 38.7419L324.392 38.6912C324.611 39.1436 324.709 39.5742 324.688 39.9829C324.665 40.3867 324.512 40.8133 324.228 41.2628ZM323.481 40.4807C323.641 40.2283 323.732 39.9845 323.756 39.7495C323.779 39.5145 323.76 39.3038 323.696 39.1174C323.635 38.9279 323.559 38.7787 323.469 38.6697C323.364 38.5217 323.223 38.3872 323.045 38.2663C322.866 38.1403 322.72 38.0413 322.606 37.9693L322.924 37.6917C322.764 38.0604 322.628 38.3775 322.516 38.643C322.405 38.9084 322.313 39.139 322.241 39.3348C322.165 39.5286 322.108 39.7053 322.067 39.865C322.032 40.0235 322.016 40.1668 322.022 40.295C322.027 40.4232 322.054 40.5373 322.103 40.6371C322.153 40.7339 322.233 40.8164 322.341 40.8845C322.464 40.9623 322.592 41.0006 322.727 40.9993C322.858 40.9961 322.988 40.9535 323.118 40.8716C323.249 40.7865 323.37 40.6562 323.481 40.4807Z" fill="#32323B"/>
</g>
<rect x="249" y="48" width="32.7805" height="32.6149" rx="16.3075" fill="#009785"/>
<path d="M268.529 66.9817L267.83 67.0882V59.4294H269.783V68.3075H267.238L261.556 60.6487L262.243 60.5422V68.3075H260.302V59.4294H262.906L268.529 66.9817Z" fill="white"/>
<g clip-path="url(#clip4_51_322)">
<rect x="166.114" y="20.4878" width="128.26" height="32.3008" rx="16.1504" transform="rotate(32.8131 166.114 20.4878)" fill="#111114"/>
<path d="M181.154 54.7564L180.033 54.034L183.038 49.3734L176.966 52.0563L175.846 51.3339L180.109 44.7219L181.23 45.4443L178.224 50.1048L184.297 47.422L185.417 48.1444L181.154 54.7564ZM184.502 57.1103C183.991 56.7807 183.628 56.3862 183.413 55.9267C183.199 55.4643 183.124 54.9734 183.185 54.4542C183.25 53.9369 183.442 53.4278 183.761 52.9269C184.091 52.4207 184.481 52.0349 184.93 51.7694C185.383 51.5028 185.864 51.3752 186.372 51.3866C186.883 51.395 187.389 51.561 187.891 51.8847C188.454 52.2478 188.838 52.6971 189.044 53.2325C189.254 53.7667 189.261 54.3172 189.064 54.884L187.77 54.4719C187.856 54.1503 187.847 53.8519 187.743 53.5767C187.64 53.2984 187.462 53.0773 187.208 52.9135C186.92 52.728 186.639 52.6439 186.363 52.6612C186.09 52.6755 185.831 52.7734 185.589 52.955C185.346 53.1365 185.127 53.3788 184.932 53.6818C184.628 54.1533 184.487 54.6025 184.511 55.0295C184.535 55.4564 184.755 55.8042 185.171 56.0726C185.465 56.2621 185.74 56.3437 185.995 56.3176C186.253 56.2935 186.507 56.182 186.757 55.9832L187.723 56.964C187.245 57.3704 186.726 57.5865 186.168 57.6122C185.611 57.6349 185.056 57.4676 184.502 57.1103ZM189.65 60.4295C189.139 60.0998 188.775 59.7053 188.56 59.2459C188.347 58.7834 188.271 58.2925 188.333 57.7733C188.398 57.2561 188.59 56.747 188.908 56.246C189.239 55.7398 189.629 55.354 190.077 55.0885C190.531 54.8219 191.012 54.6943 191.52 54.7057C192.03 54.7141 192.537 54.8801 193.039 55.2038C193.602 55.567 193.986 56.0162 194.191 56.5516C194.402 57.0859 194.409 57.6364 194.212 58.2031L192.918 57.791C193.004 57.4695 192.995 57.171 192.89 56.8958C192.788 56.6175 192.61 56.3965 192.356 56.2327C192.068 56.0471 191.786 55.963 191.511 55.9804C191.237 55.9947 190.979 56.0926 190.736 56.2741C190.494 56.4556 190.275 56.6979 190.079 57.001C189.775 57.4724 189.635 57.9216 189.659 58.3486C189.683 58.7756 189.903 59.1233 190.319 59.3917C190.613 59.5812 190.887 59.6629 191.143 59.6368C191.401 59.6126 191.655 59.5011 191.904 59.3023L192.871 60.2832C192.392 60.6896 191.874 60.9056 191.315 60.9313C190.759 60.954 190.204 60.7867 189.65 60.4295ZM192.274 61.9263L192.872 60.9987C193.031 61.1489 193.172 61.2356 193.295 61.259C193.421 61.2793 193.546 61.247 193.67 61.1623C193.794 61.0776 193.936 60.9506 194.097 60.7814C194.322 60.5406 194.567 60.2545 194.833 59.923C195.102 59.5936 195.38 59.2357 195.668 58.8494C195.959 58.4651 196.253 58.0696 196.55 57.663L200.201 60.0167L197.003 64.9757L195.901 64.2651L198.429 60.3438L196.855 59.3284C196.711 59.5175 196.548 59.7291 196.367 59.9632C196.188 60.1943 196.005 60.4274 195.819 60.6627C195.632 60.8979 195.451 61.1189 195.274 61.3257C195.103 61.5314 194.95 61.7039 194.817 61.8434C194.516 62.1561 194.232 62.3742 193.966 62.4974C193.703 62.6227 193.437 62.6394 193.167 62.5476C192.895 62.4588 192.597 62.2517 192.274 61.9263ZM200.459 67.3989C199.957 67.0752 199.586 66.6823 199.347 66.2202C199.107 65.7581 199.005 65.2651 199.039 64.7413C199.077 64.2194 199.257 63.7074 199.581 63.2054C199.93 62.6636 200.337 62.2608 200.802 61.9971C201.269 61.7303 201.758 61.6061 202.271 61.6245C202.783 61.6429 203.283 61.8091 203.77 62.1229C204.284 62.4545 204.642 62.8567 204.844 63.3294C205.052 63.8011 205.101 64.3121 204.994 64.8623C204.886 65.4125 204.619 65.9708 204.193 66.537L203.096 65.8294L203.356 65.4253C203.701 64.8846 203.859 64.4301 203.833 64.0617C203.806 63.6934 203.592 63.3799 203.191 63.1214C202.738 62.8292 202.31 62.7529 201.908 62.8924C201.508 63.0289 201.135 63.3665 200.787 63.9053C200.463 64.4073 200.323 64.8671 200.366 65.2847C200.409 65.7023 200.641 66.0473 201.064 66.3197C201.336 66.4954 201.609 66.5867 201.882 66.5936C202.16 66.5995 202.426 66.5221 202.681 66.3616L203.561 67.3969C203.083 67.7214 202.565 67.8794 202.007 67.8707C201.452 67.8641 200.936 67.7068 200.459 67.3989ZM200.24 63.9879L200.779 63.1522L204.19 65.352L203.651 66.1876L200.24 63.9879ZM202.74 70.2346L204.01 68.2648C204.279 68.4385 204.53 68.47 204.761 68.3594C204.993 68.2487 205.289 67.9886 205.648 67.579C205.865 67.3372 206.083 67.0752 206.304 66.793C206.525 66.5108 206.752 66.2088 206.986 65.8869C207.223 65.5671 207.468 65.2269 207.722 64.8664L211.414 67.2467L208.776 71.3379L209.276 71.6606L208.006 73.6305L206.959 72.9554L207.67 71.8534L204.492 69.8047L203.782 70.9067L202.74 70.2346ZM205.493 69.2211L207.674 70.6274L209.752 67.404L208.131 66.3589C208.004 66.5366 207.872 66.718 207.735 66.9029C207.6 67.0848 207.464 67.2658 207.327 67.4457C207.189 67.6256 207.055 67.7969 206.924 67.9595C206.798 68.1211 206.677 68.2684 206.561 68.4015C206.361 68.6369 206.184 68.8215 206.028 68.9552C205.873 69.089 205.694 69.1776 205.493 69.2211ZM211.739 74.6723C211.243 74.3525 210.882 73.9615 210.656 73.4992C210.43 73.0369 210.34 72.5437 210.388 72.0197C210.44 71.4945 210.631 70.9763 210.961 70.4651C211.297 69.9447 211.695 69.5557 212.156 69.2981C212.616 69.0405 213.103 68.9209 213.615 68.9394C214.128 68.9578 214.628 69.1239 215.114 69.4377C215.613 69.7595 215.976 70.1515 216.202 70.6138C216.429 71.076 216.517 71.5707 216.467 72.0979C216.42 72.6219 216.231 73.1396 215.902 73.6508C215.57 74.165 215.173 74.5525 214.71 74.8132C214.252 75.0728 213.766 75.1949 213.252 75.1795C212.739 75.1611 212.235 74.992 211.739 74.6723ZM212.408 73.6345C212.849 73.9188 213.271 73.983 213.675 73.8273C214.079 73.6716 214.431 73.3611 214.731 72.8958C215.041 72.4152 215.179 71.9625 215.145 71.5377C215.113 71.1098 214.88 70.7557 214.445 70.4755C214.148 70.284 213.86 70.1934 213.58 70.2038C213.306 70.213 213.045 70.3075 212.8 70.487C212.556 70.6635 212.333 70.9079 212.132 71.2201C211.822 71.7007 211.683 72.1549 211.715 72.5828C211.752 73.0096 211.983 73.3602 212.408 73.6345ZM215.305 76.7767L218.503 71.8177L220.757 73.2713C220.92 73.3759 221.065 73.4828 221.194 73.592C221.323 73.7011 221.429 73.8021 221.513 73.8947C221.706 74.1191 221.828 74.393 221.88 74.7166C221.933 75.037 221.844 75.3763 221.613 75.7345C221.477 75.9457 221.331 76.0985 221.175 76.1928C221.021 76.2841 220.859 76.3401 220.69 76.3609C220.61 76.3702 220.533 76.3724 220.458 76.3674C220.383 76.3625 220.312 76.3515 220.245 76.3343C220.353 76.4297 220.443 76.5379 220.517 76.659C220.632 76.8502 220.694 77.0635 220.702 77.2987C220.714 77.536 220.625 77.8015 220.436 78.0954C220.221 78.4291 219.958 78.6584 219.648 78.7834C219.342 78.9072 219.007 78.9139 218.64 78.8033C218.507 78.7609 218.362 78.7 218.205 78.6205C218.051 78.5381 217.897 78.4475 217.744 78.3488L215.305 76.7767ZM216.976 76.645L218.216 77.4444C218.28 77.4858 218.355 77.5251 218.439 77.5622C218.524 77.5993 218.603 77.6269 218.678 77.6449C218.814 77.6762 218.939 77.6571 219.053 77.5877C219.171 77.5202 219.265 77.4314 219.336 77.3212C219.432 77.1712 219.471 77.0271 219.452 76.889C219.438 76.7498 219.388 76.6313 219.304 76.5336C219.259 76.4697 219.2 76.4125 219.129 76.362C219.062 76.3105 219.006 76.2699 218.96 76.2403L217.743 75.4558L216.976 76.645ZM218.303 74.5879L219.221 75.1801C219.316 75.2413 219.411 75.2959 219.506 75.3439C219.605 75.3909 219.695 75.4203 219.774 75.4323C219.9 75.4576 220.017 75.4376 220.124 75.3723C220.234 75.309 220.327 75.2192 220.402 75.1029C220.481 74.9804 220.524 74.8525 220.533 74.719C220.546 74.5844 220.505 74.4628 220.41 74.3541C220.353 74.2742 220.271 74.1971 220.163 74.123C220.058 74.0509 219.99 74.0049 219.959 73.9852L219.064 73.4079L218.303 74.5879ZM221.742 81.122C221.384 80.8911 221.124 80.6284 220.963 80.3338C220.804 80.0362 220.733 79.7327 220.751 79.4232C220.771 79.1158 220.87 78.8258 221.045 78.5534C221.199 78.3146 221.377 78.126 221.579 77.9875C221.783 77.846 222.012 77.7597 222.266 77.7285C222.522 77.6943 222.811 77.7176 223.131 77.7986C223.371 77.8626 223.642 77.9545 223.941 78.0741C224.244 78.1958 224.566 78.3358 224.906 78.4943C225.251 78.6517 225.611 78.8149 225.988 78.9839L225.448 78.9543C225.672 78.6134 225.758 78.3115 225.707 78.0486C225.655 77.7857 225.444 77.5349 225.074 77.296C224.85 77.152 224.601 77.0648 224.326 77.0347C224.05 77.0046 223.79 77.0899 223.543 77.2907L222.737 76.3225C223.13 75.9821 223.58 75.7954 224.086 75.7624C224.596 75.7313 225.143 75.9043 225.728 76.2813C226.169 76.5655 226.51 76.8871 226.751 77.2461C226.995 77.6071 227.092 78.0037 227.043 78.4358C227.019 78.6676 226.957 78.8812 226.857 79.0767C226.759 79.2691 226.641 79.4725 226.503 79.6868L224.54 82.7311L223.571 82.1064L224.264 81.0319L224.312 81.31C223.858 81.5241 223.426 81.6186 223.018 81.5935C222.614 81.5674 222.189 81.4102 221.742 81.122ZM222.531 80.3825C222.782 80.5444 223.025 80.6382 223.26 80.6639C223.495 80.6896 223.705 80.6717 223.892 80.6102C224.082 80.5508 224.232 80.4762 224.342 80.3866C224.491 80.2833 224.627 80.1434 224.749 79.9667C224.877 79.7889 224.977 79.6434 225.05 79.5302L225.325 79.8503C224.958 79.6872 224.642 79.5486 224.378 79.4344C224.113 79.3202 223.883 79.2263 223.688 79.1525C223.495 79.0756 223.319 79.0162 223.16 78.9742C223.001 78.9372 222.858 78.9207 222.73 78.9247C222.602 78.9286 222.487 78.9546 222.387 79.0027C222.29 79.0526 222.207 79.1312 222.138 79.2383C222.059 79.3608 222.019 79.4892 222.019 79.6236C222.021 79.7549 222.063 79.8856 222.144 80.0157C222.227 80.1477 222.357 80.27 222.531 80.3825ZM225.726 83.4959L228.924 78.5369L230.03 79.2504L228.769 81.2065L230.996 82.6424L232.257 80.6863L233.364 81.3998L230.167 86.3588L229.06 85.6453L230.327 83.6801L228.1 82.2442L226.833 84.2094L225.726 83.4959ZM238.944 84.9974L235.746 89.9564L234.685 89.2725L236.773 86.0354L232.325 87.7508L231.439 87.1794L234.637 82.2203L235.697 82.9042L233.663 86.0587L238.067 84.4319L238.944 84.9974ZM240.002 92.7003L241.067 91.0473L240.181 90.4759C240.068 90.4029 239.928 90.3081 239.76 90.1914C239.596 90.0767 239.448 89.9598 239.317 89.8405C238.98 89.5234 238.77 89.1523 238.689 88.7272C238.61 88.299 238.717 87.8569 239.011 87.4008C239.299 86.9539 239.651 86.6712 240.065 86.5527C240.48 86.4342 240.903 86.46 241.335 86.6302C241.516 86.6992 241.691 86.7864 241.862 86.8919C242.037 86.9963 242.181 87.085 242.295 87.1581L244.306 88.4548L241.108 93.4138L240.002 92.7003ZM236.76 90.6101L239.167 89.4776L240.32 90.2207L237.922 91.3592L236.76 90.6101ZM240.626 89.5341L241.627 90.1795L242.64 88.6091L241.639 87.9637C241.58 87.9262 241.508 87.8839 241.421 87.8367C241.335 87.7895 241.243 87.75 241.147 87.7182C241.04 87.6885 240.926 87.6816 240.803 87.6977C240.68 87.7137 240.559 87.7554 240.442 87.8229C240.325 87.8904 240.225 87.9884 240.142 88.117C240.018 88.3098 239.969 88.506 239.997 88.7057C240.029 88.9042 240.106 89.0733 240.229 89.2128C240.29 89.2786 240.357 89.3392 240.43 89.3946C240.506 89.4521 240.571 89.4986 240.626 89.5341Z" fill="white"/>
</g>
</g>
<defs>
<clipPath id="clip0_51_322">
<rect width="343" height="112" fill="white"/>
</clipPath>
<clipPath id="clip1_51_322">
<rect x="14.335" y="37" width="89.2602" height="32.3008" rx="16.1504" transform="rotate(39.0167 14.335 37)" fill="white"/>
</clipPath>
<clipPath id="clip2_51_322">
<rect x="54" y="60.8298" width="107.26" height="32.3008" rx="16.1504" transform="rotate(-29.5076 54 60.8298)" fill="white"/>
</clipPath>
<clipPath id="clip3_51_322">
<rect x="262.078" y="100.642" width="112.26" height="32.3008" rx="16.1504" transform="rotate(-57.7074 262.078 100.642)" fill="white"/>
</clipPath>
<clipPath id="clip4_51_322">
<rect x="166.114" y="20.4878" width="128.26" height="32.3008" rx="16.1504" transform="rotate(32.8131 166.114 20.4878)" fill="white"/>
</clipPath>
</defs>
</svg>
